<svg width="52" height="53" viewBox="0 0 52 53" fill="none" xmlns="http://www.w3.org/2000/svg">
<path d="M1.53485 32.5103C1.83485 32.7103 2.13485 32.9103 2.43485 33.0103C2.83485 33.2103 3.43485 33.5103 3.43485 33.7103C3.53485 34.0103 3.43485 34.3103 3.33485 34.6103C3.23485 34.9103 3.03485 35.1103 2.93485 35.3103C2.63485 35.9103 2.13485 36.8103 2.93485 37.5103C3.13485 37.7103 3.43485 37.9103 3.73485 38.1103C3.53485 38.5103 3.43485 38.9103 3.43485 39.3103C3.43485 39.6103 3.63485 40.0103 3.93485 40.2103C4.13485 40.3103 4.33485 40.5103 4.53485 40.6103C5.03485 40.9103 5.23485 41.0103 5.33485 41.3103C5.33485 41.6103 5.33485 42.0103 5.23485 42.3103C5.13485 42.5103 5.13485 42.8103 5.13485 43.0103C5.03485 43.8103 5.13485 44.6103 5.43485 45.3103C5.83485 46.7103 7.03485 47.6103 8.53485 47.7103C8.73485 47.7103 9.03485 47.7103 9.23485 47.6103C11.7349 47.0103 14.1348 46.3103 16.5348 45.4103C18.5348 46.5103 19.7348 50.0103 20.0348 51.3103C20.1348 51.7103 20.4349 52.0103 20.8349 52.0103L42.5349 51.9103C42.8349 51.9103 43.0349 51.8103 43.2349 51.5103C43.4349 51.3103 43.4348 51.0103 43.3349 50.7103C43.1348 50.1103 42.8349 49.6103 42.4349 49.1103C42.2349 48.8103 42.0349 48.5103 41.8349 48.2103C41.4348 47.4103 41.1348 46.6103 40.8349 45.7103C40.3349 44.0103 40.0349 42.3103 39.8349 40.6103C39.5349 38.0103 39.9349 35.4103 40.9349 33.0103C41.5349 31.7103 42.3349 30.4103 43.3349 29.3103C43.8349 28.6103 44.4348 27.9103 44.8349 27.1103C46.2349 25.0103 46.9349 22.5103 46.9349 20.0103C46.9349 19.7103 46.9349 19.4103 46.9349 19.1103C47.6349 18.3103 48.2349 17.4103 48.7349 16.5103C52.0349 10.8103 51.9349 4.91032 48.5349 2.01032C46.5349 0.410318 43.9349 -0.289676 41.4349 0.110324C39.0349 0.510324 36.9349 1.81033 35.5349 3.71033C34.2349 1.91033 32.3349 0.71033 30.2348 0.210331C30.2348 0.210331 30.2348 0.210331 30.1348 0.210331H30.0348C29.9348 0.210331 29.7348 0.110324 29.6348 0.110324C28.9348 0.0103244 28.3349 0.0103183 27.6348 0.0103183C27.1348 0.0103183 26.5349 0.0103183 25.9349 0.0103183C23.1349 0.210318 20.3348 0.61033 17.5348 1.21033C13.6348 2.01033 10.8349 3.31031 8.83485 5.41031C7.33485 7.01031 6.13485 9.01032 5.33485 11.1103C5.03485 12.0103 4.73485 12.9103 4.53485 13.9103L4.43485 14.3103C4.23485 15.0103 4.03485 15.6103 3.73485 16.3103C3.53485 16.7103 3.33485 17.1103 3.23485 17.5103C3.03485 18.0103 2.93485 18.5103 3.03485 18.9103C3.23485 19.7103 3.63485 20.4103 4.33485 20.8103C4.73485 21.2103 5.03485 21.5103 5.03485 21.7103C5.03485 21.8103 4.93485 22.0103 4.93485 22.1103C3.93485 24.3103 2.63485 26.4103 1.13485 28.3103C0.53485 29.1103 -0.16515 30.0103 0.0348505 30.8103C0.43485 31.6103 0.93485 32.2103 1.53485 32.5103ZM35.0349 5.91031C35.2349 6.21031 35.4348 6.31034 35.8349 6.31034C36.1348 6.31034 36.4349 6.11031 36.6349 5.91031C37.7349 3.81031 39.7349 2.41032 42.0349 2.01032C44.0349 1.61032 46.1349 2.21032 47.7349 3.51032C50.5349 5.91032 50.4349 10.9103 47.5349 15.9103C45.2349 20.2103 38.9349 24.3103 35.9349 26.1103C35.4349 25.8103 34.8349 25.4103 34.3349 25.1103C34.7349 24.6103 35.1349 24.1103 35.4349 23.5103C37.3349 20.3103 37.2349 17.0103 35.2349 15.2103C34.1349 14.2103 32.5349 13.9103 31.1348 14.1103C29.9348 14.3103 28.8348 14.9103 28.0348 15.8103C26.8348 14.5103 25.1348 13.8103 23.3349 14.1103C21.3349 9.71033 21.6348 5.61032 24.0348 3.51032C25.2348 2.51032 26.6348 2.01032 28.1348 2.01032C28.8349 2.01032 29.4348 2.11033 30.0348 2.21033C32.1348 2.61033 33.9349 4.01031 35.0349 5.91031ZM23.9349 15.7103C24.1349 15.7103 24.3348 15.7103 24.5348 15.7103C25.6348 15.9103 26.6348 16.6103 27.1348 17.6103C27.3349 17.9103 27.5349 18.0103 27.9349 18.0103C28.3349 18.0103 28.5348 17.8103 28.7348 17.6103C29.2348 16.6103 30.2348 15.9103 31.3348 15.7103C32.3348 15.5103 33.2349 15.8103 34.0349 16.4103C35.3349 17.5103 35.3349 20.0103 33.8349 22.5103C33.0349 24.1103 30.8348 25.9103 28.0348 27.6103C25.1348 25.9103 23.0348 24.0103 22.1348 22.4103C20.7348 19.9103 20.6349 17.5103 21.9349 16.3103C22.4349 16.0103 23.1349 15.7103 23.9349 15.7103ZM2.73485 29.4103C4.23485 27.4103 5.63485 25.2103 6.73485 23.0103C6.93485 22.6103 7.03485 22.2103 7.03485 21.8103C6.93485 20.9103 6.53485 20.1103 5.73485 19.6103C5.43485 19.3103 5.03485 19.0103 5.03485 18.7103C5.03485 18.5103 5.13485 18.3103 5.13485 18.1103C5.23485 17.7103 5.43485 17.4103 5.63485 17.0103C6.03485 16.3103 6.23485 15.5103 6.43485 14.7103L6.53485 14.3103C6.73485 13.4103 6.93485 12.6103 7.23485 11.7103C7.93485 9.81033 8.93485 8.11032 10.3349 6.61032C12.0349 4.81032 14.6348 3.61031 18.1348 2.91031C19.5348 2.61031 21.0348 2.31032 22.5348 2.11032C19.7348 4.71032 19.3349 9.41031 21.4349 14.4103C21.1349 14.6103 20.8349 14.7103 20.6348 15.0103C18.6348 16.7103 18.6349 20.0103 20.4349 23.2103C21.8349 25.8103 25.3349 28.1103 27.3349 29.3103C27.6348 29.5103 27.9349 29.5103 28.2348 29.3103C29.8349 28.4103 31.4349 27.3103 32.8349 26.1103C33.6348 26.6103 34.4349 27.1103 35.2349 27.6103C35.5349 27.8103 35.8349 27.8103 36.1349 27.6103C39.4349 25.7103 42.5349 23.5103 45.2349 21.0103C45.0349 22.9103 44.4349 24.6103 43.4349 26.2103C43.0349 26.9103 42.4349 27.6103 41.9349 28.3103C40.9349 29.6103 40.0349 30.9103 39.4349 32.4103C38.2349 35.1103 37.8349 38.0103 38.1349 40.9103C38.3349 42.7103 38.7349 44.6103 39.2349 46.3103C39.5349 47.2103 39.8349 48.1103 40.3349 49.0103C40.5349 49.4103 40.7349 49.8103 41.0349 50.1103L41.1349 50.2103L21.5348 50.3103C20.9348 48.2103 19.9348 46.4103 18.5348 44.8103L19.2348 44.6103C19.8349 44.4103 20.2348 44.2103 20.4349 44.2103C24.1349 43.0103 26.0349 41.3103 25.9349 39.2103C25.9349 38.7103 25.5348 38.3103 25.0348 38.4103C24.5348 38.4103 24.1348 38.8103 24.2348 39.3103C24.2348 40.2103 23.5349 41.5103 19.9349 42.6103C19.7348 42.7103 19.2348 42.8103 18.6348 43.0103C18.0348 43.2103 17.1348 43.5103 16.2348 43.8103C13.8349 44.7103 11.3349 45.4103 8.83485 46.1103C8.03485 46.2103 7.23485 45.7103 7.03485 44.9103C6.83485 44.4103 6.73485 43.9103 6.83485 43.4103C6.83485 43.2103 6.93485 43.0103 6.93485 42.9103C7.13485 42.3103 7.13485 41.7103 7.03485 41.1103C6.73485 40.3103 6.23485 39.7103 5.43485 39.3103C5.33485 39.3103 5.33485 39.2103 5.23485 39.2103C5.33485 39.0103 5.43485 38.8103 5.53485 38.7103C5.63485 38.5103 5.73485 38.3103 5.73485 38.0103C5.73485 37.7103 5.53485 37.6103 5.43485 37.4103C5.23485 37.2103 4.73485 36.9103 4.33485 36.6103C4.33485 36.5103 4.43485 36.4103 4.43485 36.4103C4.53485 36.2103 4.73485 35.9103 4.83485 35.6103C5.13485 35.0103 5.23485 34.3103 5.03485 33.7103C4.83485 32.6103 3.83485 32.1103 3.03485 31.7103C2.83485 31.6103 2.53485 31.4103 2.33485 31.3103C2.13485 31.2103 1.93485 31.0103 1.83485 30.9103C1.93485 30.5103 2.13485 30.2103 2.73485 29.4103Z" fill="black"/>
<path d="M8.83471 16.2103C9.33471 16.3103 9.73471 16.0103 9.83471 15.6103L9.93471 15.2103C10.1347 14.5103 10.2347 13.8103 10.5347 13.1103C11.0347 11.7103 11.8347 10.3103 12.9347 9.21034C14.0347 8.11034 15.4347 7.41033 16.9347 7.01033C17.2347 6.91033 17.4347 6.71032 17.5347 6.41032C17.6347 6.11032 17.5347 5.81033 17.2347 5.61033C17.0347 5.41033 16.7347 5.31032 16.4347 5.41032C14.6347 5.91032 13.0347 6.81033 11.7347 8.11033C10.5347 9.41033 9.63471 10.9103 9.03471 12.6103C8.73471 13.4103 8.53471 14.2103 8.43471 14.9103L8.23471 15.2103C8.13471 15.6103 8.43471 16.1103 8.83471 16.2103Z" fill="black"/>
<path d="M38.3351 8.01031C38.7351 8.21031 39.2351 8.11032 39.5351 7.71032C40.1351 6.51032 41.2351 5.71031 42.5351 5.51031C43.5351 5.31031 44.5351 5.51032 45.3351 6.11032C45.7351 6.41032 46.2351 6.41031 46.5351 6.01031C46.8351 5.61031 46.8351 5.11033 46.4351 4.81033C45.2351 3.91033 43.7351 3.51032 42.2351 3.71032C40.4351 4.01032 38.9351 5.21033 38.0351 6.81033C37.9351 7.01033 37.9351 7.21031 37.9351 7.51031C37.9351 7.71031 38.1351 7.81031 38.3351 8.01031Z" fill="black"/>
<path d="M8.03477 19.2103C8.53182 19.2103 8.93477 18.8074 8.93477 18.3103C8.93477 17.8133 8.53182 17.4103 8.03477 17.4103C7.53771 17.4103 7.13477 17.8133 7.13477 18.3103C7.13477 18.8074 7.53771 19.2103 8.03477 19.2103Z" fill="black"/>
</svg>
