<svg width="38" height="45" viewBox="0 0 38 45" fill="none" xmlns="http://www.w3.org/2000/svg">
<path d="M36.9617 4.5C36.3617 3.8 35.4617 3.39999 34.5617 3.39999H31.4617V2.39999C31.4617 1.19999 30.4617 0.199997 29.2617 0.199997H8.3617C7.1617 0.199997 6.1617 1.19999 6.1617 2.39999V3.39999H3.1617C2.2617 3.39999 1.3617 3.8 0.761705 4.5C0.161704 5.2 -0.138296 6.09999 0.0617045 7.09999C0.861704 12.1 3.9617 16.5 8.4617 18.9C8.8617 19.9 9.3617 20.8 9.8617 21.7C11.4617 24.5 13.5617 26.4 15.7617 27.3C15.9617 29.6 14.4617 31.8 12.1617 32.3C11.7617 32.4 11.3617 32.8 11.3617 33.3V38H9.3617C7.6617 38 6.2617 39.4 6.2617 41.1V43.5C6.2617 44.1 6.7617 44.5 7.2617 44.5H30.3617C30.9617 44.5 31.3617 44 31.3617 43.5V41.1C31.3617 39.4 29.9617 38 28.2617 38H26.3617V33.3C26.3617 32.8 26.0617 32.4 25.5617 32.3C23.2617 31.8 21.7617 29.6 21.9617 27.3C24.1617 26.4 26.1617 24.5 27.7617 21.8C28.2617 20.9 28.7617 20 29.1617 19C33.5617 16.6 36.7617 12.2 37.5617 7.2C37.8617 6.1 37.5617 5.2 36.9617 4.5ZM2.0617 6.7C1.9617 6.4 2.0617 6.1 2.3617 5.8C2.5617 5.5 2.8617 5.39999 3.2617 5.39999H6.3617V7.3C6.3617 10.2 6.7617 13.1 7.4617 15.7C4.5617 13.5 2.5617 10.2 2.0617 6.7ZM28.3617 39.9C28.9617 39.9 29.3617 40.4 29.3617 40.9V42.3H8.3617V40.9C8.3617 40.3 8.8617 39.9 9.3617 39.9H28.3617ZM24.4617 34.2V37.9H13.3617V34.2H24.4617ZM15.9617 32.1C16.2617 31.8 16.4617 31.5 16.6617 31.2C17.3617 30.1 17.6617 28.9 17.7617 27.7C18.1617 27.7 18.4617 27.8 18.8617 27.8C19.2617 27.8 19.6617 27.8 20.0617 27.7C20.0617 29.4 20.7617 30.9 21.8617 32.1H15.9617ZM29.3617 7.3C29.3617 12.3 28.1617 17 26.0617 20.6C24.0617 24 21.4617 25.8 18.7617 25.8C16.0617 25.8 13.4617 23.9 11.4617 20.6C9.3617 17.1 8.1617 12.4 8.1617 7.3V2.39999C8.1617 2.29999 8.2617 2.3 8.2617 2.3H29.1617C29.2617 2.3 29.2617 2.39999 29.2617 2.39999V7.3H29.3617ZM35.6617 6.7C35.0617 10.2 33.1617 13.5 30.3617 15.7C31.0617 13.1 31.4617 10.2 31.4617 7.3V5.39999H34.5617C34.8617 5.39999 35.2617 5.5 35.4617 5.8C35.6617 6 35.7617 6.4 35.6617 6.7Z" fill="black"/>
</svg>
