<svg width="58" height="32" viewBox="0 0 58 32" fill="none" xmlns="http://www.w3.org/2000/svg">
<path d="M54.2 27.1C54.2 25.9 55.1 25 56.3 25V24.6C55.1 24.6 54.2 23.7 54.2 22.5C54.2 21.3 55.1 20.4 56.3 20.4V20C55.1 20 54.2 19.1 54.2 17.9C54.2 16.7 55.1 15.8 56.3 15.8V15.4C55.1 15.4 54.2 14.5 54.2 13.3C54.2 12.1 55.1 11.2 56.3 11.2V10.8C55.1 10.8 54.2 9.89997 54.2 8.69997C54.2 7.49997 55.1 6.59998 56.3 6.59998V6.19997C55.1 6.19997 54.2 5.29998 54.2 4.09998C54.2 2.89998 55.1 1.99997 56.3 1.99997V1.09998H1V30.6H56.3V29.3C55.1 29.2 54.2 28.2 54.2 27.1Z" stroke="#0E0F0F" stroke-width="1.6587" stroke-miterlimit="10" stroke-linecap="round" stroke-linejoin="round"/>
<path d="M41.7998 1V30.5" stroke="#0E0F0F" stroke-width="1.6587" stroke-miterlimit="10" stroke-linecap="round" stroke-linejoin="round"/>
<path d="M16.7998 18.5H14.0998L13.2998 20.2H10.7998L15.2998 11.3H18.3998L19.1998 20.2H16.8998L16.7998 18.5ZM14.9998 16.6H16.7998L16.6998 14V13.5C16.6998 13.2 16.6998 12.9 16.6998 12.7C16.5998 13 16.4998 13.4 16.2998 13.7L14.9998 16.6Z" fill="black"/>
<path d="M22.5997 20.2H20.1997L22.0997 11.3H27.3997L26.9997 13.2H24.0997L23.6997 14.9H26.3997L25.9997 16.8H23.2997L22.5997 20.2Z" fill="black"/>
<path d="M34.7999 13.9C34.7999 14.9 34.4999 15.7 33.7999 16.3C33.0999 16.9 32.0999 17.2 30.8999 17.2H30.3999L29.7999 20.2H27.3999L29.2999 11.3H31.5999C32.6999 11.3 33.4999 11.5 33.9999 12C34.4999 12.4 34.7999 13.1 34.7999 13.9ZM30.7999 15.3H31.1999C31.5999 15.3 31.8999 15.2 32.0999 14.9C32.2999 14.7 32.3999 14.4 32.3999 14C32.3999 13.8 32.2999 13.6 32.1999 13.4C32.0999 13.2 31.8999 13.2 31.5999 13.2H31.1999L30.7999 15.3Z" fill="black"/>
</svg>
