<svg width="127" height="127" viewBox="0 0 127 127" fill="none" xmlns="http://www.w3.org/2000/svg">
<path d="M126.35 77.3164L105.651 31.9858L110.707 29.4587L108.811 25.668L103.913 28.0372L103.281 26.6157C102.807 25.51 101.543 25.0362 100.437 25.51C99.9625 25.668 99.6465 26.1418 99.3304 26.6157L98.6984 27.8792C95.0642 26.1418 91.272 25.3521 87.3218 25.3521H69.625V21.0875H73.8912V16.823H70.257L71.8371 10.821C72.9431 6.2406 70.099 1.50221 65.5168 0.238637C60.9346 -0.866986 56.1943 1.97603 54.9302 6.55647C54.6142 7.97799 54.6142 9.39952 54.9302 10.821L56.5103 16.823H52.8762V21.0875H57.1423V25.3521H39.4455C35.4953 25.3521 31.5451 26.1418 28.0689 27.8792L27.4369 26.6157C26.9629 25.51 25.6988 25.0362 24.5928 25.51C24.1187 25.668 23.8027 26.1418 23.4867 26.6157L22.8547 28.0372L17.9564 25.51L16.0603 29.3007L21.1166 31.8279L0.259532 77.1584C0.101524 77.4743 0.101563 77.7902 0.101563 78.1061C0.101563 86.3193 6.73787 92.7951 14.7963 92.953H35.9693C44.1857 92.953 50.664 86.3193 50.822 78.264C50.822 77.9482 50.8221 77.6323 50.6641 77.3164L29.807 31.8279C32.8092 30.4063 36.1273 29.7746 39.4455 29.7746H57.1423V106.852L49.874 114.118H42.2896C36.4433 114.118 31.7031 118.856 31.7031 124.7C31.7031 125.806 32.6511 126.754 33.7572 126.754H92.8521C93.9582 126.754 94.9062 125.806 94.9062 124.7C94.9062 118.856 90.166 114.118 84.3197 114.118H76.7353L69.467 106.852V29.7746H87.1638C90.482 29.7746 93.8002 30.5643 96.8023 31.9858L75.9453 77.4743C75.7873 77.7902 75.7873 78.1061 75.7873 78.422C75.7873 86.6352 82.4236 93.111 90.482 93.2689H111.655C119.871 93.2689 126.35 86.6352 126.508 78.5799C126.666 77.9482 126.508 77.6323 126.35 77.3164ZM35.9693 88.6885H14.7963C9.74002 88.6885 5.47381 85.2137 4.52576 80.3174H46.2398C45.2918 85.2137 40.8675 88.6885 35.9693 88.6885ZM45.2918 76.0528H5.47382L24.9088 33.8812C25.2248 34.0391 25.6988 34.0391 26.0148 33.8812L45.2918 76.0528ZM59.8285 6.08265C61.4086 4.1873 64.4107 3.8714 66.3068 5.60881C66.4648 5.76676 66.6228 5.92469 66.9388 6.24058C67.7289 7.34621 68.0449 8.76774 67.7289 10.0313L65.9908 17.1389H60.7765L59.0384 10.0313C58.7224 8.60979 59.0384 7.18828 59.8285 6.08265ZM61.2505 25.51V21.2455H65.5168V25.51H61.2505ZM65.5168 29.6166V105.589H61.2505V29.6166H65.5168ZM84.4777 118.224C87.1638 118.224 89.5339 119.962 90.482 122.489H36.2853C37.2334 119.962 39.6035 118.224 42.2896 118.224H84.4777ZM70.889 114.118H55.7203L59.9865 109.853H66.6228L70.889 114.118ZM100.752 33.8812C101.069 34.0391 101.543 34.0391 101.859 33.8812L121.294 76.2107H81.4756L100.752 33.8812ZM111.813 88.8464H90.64C85.5838 88.8464 81.3175 85.3716 80.3695 80.4753H122.084C121.135 85.2137 116.869 88.8464 111.813 88.8464Z" fill="black"/>
</svg>
