<svg width="56" height="53" viewBox="0 0 56 53" fill="none" xmlns="http://www.w3.org/2000/svg">
<path d="M52.4001 25.5001C54.3001 23.0001 55.2001 20.1001 55.2001 17.2001C55.2001 8.20007 46.1001 0.800049 34.9001 0.800049C23.9001 0.800049 14.9001 7.90005 14.6001 16.8C15.1001 16.4 15.7001 16.2001 16.3001 16.0001C17.1001 8.40006 25.1001 2.50006 34.9001 2.50006C45.2001 2.50006 53.6001 9.10007 53.6001 17.2001C53.6001 19.9001 52.7001 22.5001 50.9001 24.9001C50.7001 25.1001 50.7001 25.4 50.7001 25.6L53.2001 36.3L41.2001 31.3C41.1001 31.3 41.0001 31.2001 40.9001 31.2001C41.0001 31.8001 41.0001 32.4001 40.9001 32.9001L54.1001 38.4001C54.2001 38.4001 54.3001 38.5001 54.4001 38.5001C54.6001 38.5001 54.8001 38.4 54.9001 38.3C55.1001 38.1 55.2001 37.8001 55.2001 37.5001L52.4001 25.5001Z" fill="#0E0F0F"/>
<path d="M1.5002 52.4001C1.3002 52.4001 1.1002 52.3001 1.0002 52.2001C0.800196 52.0001 0.700195 51.7001 0.700195 51.4001L3.5002 39.5001C1.6002 37.0001 0.700195 34.1001 0.700195 31.2001C0.700195 22.2001 9.80019 14.8 21.0002 14.8C32.2002 14.8 41.3002 22.1001 41.3002 31.2001C41.3002 40.3001 32.2002 47.6 21.0002 47.6C19.0002 47.6 17.0002 47.4001 15.1002 46.9001L1.8002 52.4001C1.7002 52.3001 1.6002 52.4001 1.5002 52.4001ZM21.0002 16.4001C10.7002 16.4001 2.3002 23 2.3002 31.1C2.3002 33.8 3.2002 36.4 5.0002 38.8C5.2002 39 5.2002 39.3001 5.2002 39.5001L2.7002 50.2001L14.7002 45.2001C14.9002 45.1001 15.1002 45.1001 15.2002 45.2001C17.1002 45.7001 19.0002 45.9001 21.0002 45.9001C31.3002 45.9001 39.7002 39.3001 39.7002 31.2001C39.7002 23.1001 31.3002 16.4001 21.0002 16.4001Z" fill="#0E0F0F"/>
</svg>
