<svg width="52" height="40" viewBox="0 0 52 40" fill="none" xmlns="http://www.w3.org/2000/svg">
<path d="M25.8349 6C17.5349 6 10.7349 12.8 10.7349 21.1C10.7349 29.4 17.5349 36.2 25.8349 36.2C34.1349 36.2 40.9349 29.4 40.9349 21.1C40.9349 12.8 34.1349 6 25.8349 6ZM25.8349 34.3C18.6349 34.3 12.7349 28.4 12.7349 21.2C12.7349 14 18.6349 8.10004 25.8349 8.10004C33.0349 8.10004 38.9349 14 38.9349 21.2C38.9349 28.4 33.0349 34.3 25.8349 34.3Z" fill="black"/>
<path d="M34.7352 16.3C34.4352 15.8 33.8352 15.6 33.3352 15.9C32.9352 16.2 32.7352 16.8 32.9352 17.2C33.6352 18.4 33.9352 19.7 33.9352 21.1C33.9352 25.6 30.2352 29.3 25.7352 29.3C21.2352 29.3 17.5352 25.6 17.5352 21.1C17.5352 16.6 21.2352 12.9 25.7352 12.9C26.1352 12.9 26.6352 12.9 27.0352 13C27.5352 13.1 28.0352 12.7 28.1352 12.2C28.1352 12.2 28.1352 12.2 28.1352 12.1C28.2352 11.6 27.8352 11 27.3352 11C26.8352 10.9 26.2352 10.9 25.7352 10.9C20.1352 10.9 15.5352 15.5 15.5352 21.1C15.5352 26.7 20.1352 31.3 25.7352 31.3C31.3352 31.3 35.9352 26.7 35.9352 21.1C36.0352 19.5 35.5352 17.8 34.7352 16.3Z" fill="black"/>
<path d="M32.135 12.8C32.135 12.8 32.035 12.7 31.935 12.7C31.835 12.7 31.835 12.6 31.735 12.6C31.635 12.6 31.635 12.6 31.535 12.5C31.435 12.5 31.235 12.5 31.135 12.5C31.035 12.5 31.035 12.5 30.935 12.6C30.835 12.6 30.835 12.7 30.735 12.7C30.635 12.7 30.635 12.8 30.535 12.8C30.535 12.8 30.435 12.9 30.435 13C30.435 13.1 30.335 13.1 30.335 13.2V13.3C30.335 13.3 30.335 13.3 30.335 13.4C30.335 13.5 30.335 13.5 30.335 13.6C30.335 13.7 30.335 13.7 30.335 13.8C30.335 13.9 30.335 13.9 30.435 14C30.435 14.1 30.535 14.1 30.535 14.2C30.535 14.3 30.635 14.3 30.635 14.4C30.635 14.4 30.735 14.5 30.835 14.5C30.935 14.5 30.935 14.6 31.035 14.6C31.135 14.6 31.135 14.6 31.235 14.7C31.335 14.7 31.335 14.7 31.435 14.7C31.535 14.7 31.535 14.7 31.635 14.7C31.735 14.7 31.735 14.7 31.835 14.6C31.935 14.6 31.935 14.6 31.935 14.5C32.035 14.5 32.035 14.4 32.135 14.4C32.235 14.4 32.235 14.3 32.235 14.2C32.235 14.1 32.335 14.1 32.335 14C32.335 13.9 32.335 13.9 32.435 13.8C32.435 13.7 32.435 13.7 32.435 13.6C32.435 13.3 32.335 13 32.135 12.8Z" fill="black"/>
<path d="M51.235 35.4L48.035 9.10005C47.835 7.30005 47.235 5.50003 46.335 3.90003C45.735 2.90003 45.135 2.00002 44.335 1.20002L44.235 1.10005C43.535 0.400046 42.535 0.200046 41.735 0.600046C40.835 1.00005 40.335 1.90003 40.535 2.90003L44.635 36.3C44.635 36.4 44.635 36.5 44.735 36.6C45.035 38.2 46.435 39.3 48.035 39.3C48.135 39.3 48.335 39.3 48.435 39.3C49.535 39.2 50.435 38.5 50.935 37.6C51.035 37.5 51.035 37.4 51.035 37.3C51.035 37.2 51.135 37.1 51.135 37C51.335 36.5 51.335 36 51.235 35.4ZM42.435 2.60005C42.435 2.60005 42.435 2.50003 42.535 2.40003H42.635C42.735 2.40003 42.735 2.40001 42.735 2.50001L42.835 2.60005C43.535 3.30005 44.135 4.10003 44.535 4.90003C45.335 6.30003 45.835 7.8 46.035 9.3L47.735 23.3L44.935 23.6L42.435 2.60005ZM49.235 36.4C49.035 36.9 48.635 37.2 48.135 37.3C47.335 37.4 46.635 36.8 46.535 36.1L45.235 25.7L48.035 25.4L49.335 35.7C49.335 35.9 49.335 36.2 49.235 36.4Z" fill="black"/>
<path d="M12.535 1.40002C12.035 1.30002 11.535 1.69998 11.435 2.29998L10.535 9.70001C10.435 10.9 9.43501 11.7 8.335 11.8L7.635 11.7L8.835 1.99999C8.93501 1.49999 8.535 1.00002 7.935 0.900018C7.435 0.800018 6.935 1.19998 6.835 1.79998L5.635 11.5L4.935 11.4C3.835 11.1 3.135 9.99998 3.235 8.79998L4.135 1.40002C4.235 0.900018 3.835 0.399982 3.235 0.299982C2.735 0.199982 2.235 0.600006 2.135 1.20001L1.235 8.60003C1.035 10.4 1.935 12.2 3.535 13L0.235005 34.7C0.135005 35.6 0.335005 36.6 0.935005 37.3C1.535 38.1 2.335 38.5 3.235 38.6C3.335 38.6 3.535 38.6 3.635 38.6C4.435 38.6 5.135 38.3 5.835 37.8C6.535 37.2 7.035 36.4 7.135 35.4L9.135 13.4C10.835 13 12.235 11.5 12.435 9.70001L13.335 2.29998C13.435 1.89998 13.035 1.40002 12.535 1.40002ZM5.235 35.4C5.235 35.8 5.035 36.2 4.735 36.4C4.435 36.7 4.035 36.8 3.635 36.7C3.235 36.7 2.835 36.4 2.635 36.1C2.435 35.8 2.335 35.4 2.335 35L5.735 13.3L6.535 13.4L7.335 13.5L5.235 35.4Z" fill="black"/>
</svg>
