<svg width="64" height="45" viewBox="0 0 64 45" fill="none" xmlns="http://www.w3.org/2000/svg">
<path d="M58.0998 43.4999H5.9998C3.3998 43.4999 1.2998 41.3999 1.2998 38.7999V5.89996C1.2998 3.29996 3.3998 1.19995 5.9998 1.19995H58.0998C60.6998 1.19995 62.7998 3.29996 62.7998 5.89996V38.7999C62.7998 41.3999 60.6998 43.4999 58.0998 43.4999Z" stroke="#0E0F0F" stroke-width="1.6587" stroke-miterlimit="10" stroke-linecap="round" stroke-linejoin="round"/>
<path d="M54.8 40.3H9.1C6.9 40.3 5 38.5 5 36.2V8.5C5 6.3 6.8 4.40002 9.1 4.40002H54.9C57.1 4.40002 59 6.2 59 8.5V36.2C58.9 38.4 57.1 40.3 54.8 40.3Z" stroke="#0E0F0F" stroke-width="1.6871" stroke-miterlimit="10" stroke-linecap="round" stroke-linejoin="round"/>
<path d="M23.3002 26.9H20.5002L21.4002 22.7H18.9002L18.0002 26.9H15.2002L17.4002 16.5H20.2002L19.4002 20.4H21.9002L22.7002 16.5H25.5002L23.3002 26.9Z" fill="black"/>
<path d="M31.8001 26.9H25.6001L27.8001 16.5H34.0001L33.5001 18.8H30.1001L29.8001 20.4H33.0001L32.5001 22.7H29.3001L28.9001 24.7H32.3001L31.8001 26.9Z" fill="black"/>
<path d="M33.8003 26.9L36.0003 16.5H38.8003L37.1003 24.6H40.5003L40.0003 26.9H33.8003Z" fill="black"/>
<path d="M50.2 19.6C50.2 20.8 49.8 21.7 49 22.4C48.2 23.1 47.1 23.4 45.7 23.4H45L44.3 26.9H41.5L43.7 16.5H46.4C47.6 16.5 48.6 16.8 49.2 17.3C49.9 17.9 50.2 18.6 50.2 19.6ZM45.5 21.2H46C46.4 21.2 46.8 21.1 47 20.8C47.3 20.5 47.4 20.2 47.4 19.7C47.4 19.4 47.3 19.2 47.1 19C46.9 18.8 46.7 18.7 46.4 18.7H46L45.5 21.2Z" fill="black"/>
</svg>
