<svg width="56" height="62" viewBox="0 0 56 62" fill="none" xmlns="http://www.w3.org/2000/svg">
<path d="M25.1002 47.9001H1.0002C0.600195 47.9001 0.200195 47.6 0.200195 47.1V1.10004C0.200195 0.700037 0.500196 0.300049 1.0002 0.300049H25.1002C25.5002 0.300049 25.9002 0.600037 25.9002 1.10004V47.1C25.9002 47.6 25.5002 47.9001 25.1002 47.9001ZM1.8002 46.4001H24.4002V1.90009H1.8002V46.4001Z" fill="#0E0F0F"/>
<path d="M54.4998 14.7H38.8998C38.9998 15.2 39.0998 15.7 38.9998 16.2H53.7998V59.7H33.7998V54.0999C33.5998 54.1999 33.3998 54.2 33.0998 54.2C32.7998 54.2 32.4998 54.0999 32.2998 54.0999V60.4999C32.2998 60.8999 32.5998 61.2999 33.0998 61.2999H54.5998C54.9998 61.2999 55.3998 60.9999 55.3998 60.4999V15.4999C55.2998 15.0999 54.8998 14.7 54.4998 14.7Z" fill="#0E0F0F"/>
<path d="M39.6999 7.69995H25.2999C25.3999 8.19995 25.2999 8.79995 24.9999 9.19995H38.9999V14.9C39.0999 15.4 39.0999 15.7999 38.9999 16.2999V53.5999H16.3999V46.9999C16.2999 46.9999 16.1999 46.9999 15.9999 46.9999C15.5999 46.9999 15.1999 46.9 14.8999 46.7V54.2999C14.8999 54.6999 15.1999 55.0999 15.6999 55.0999H39.7999C40.1999 55.0999 40.5999 54.7999 40.5999 54.2999V8.29993C40.4999 7.99993 40.1999 7.69995 39.6999 7.69995Z" fill="#0E0F0F"/>
<path d="M32.9999 61.2C32.7999 61.2 32.5999 61.1 32.3999 61C32.0999 60.7 32.0999 60.2 32.4999 59.9L39.1999 53.8C39.4999 53.5 39.9999 53.5 40.2999 53.9C40.5999 54.2 40.5999 54.7 40.1999 55L33.4999 61.1C33.3999 61.2 33.1999 61.2 32.9999 61.2Z" fill="#0E0F0F"/>
<path d="M15.6 55.1C15.4 55.1 15.2 55 15 54.8C14.7 54.5 14.8 54 15.1 53.7L24.6 46.5C24.9 46.3 25.4 46.3 25.7 46.6C26 46.9 25.9 47.4 25.6 47.7L16.1 54.9C16 55.1 15.8 55.1 15.6 55.1Z" fill="#0E0F0F"/>
<path d="M4.3999 8H21.6999" stroke="#0E0F0F" stroke-width="0.9049" stroke-miterlimit="10" stroke-linecap="round" stroke-linejoin="round"/>
<path d="M4.3999 13.2H21.6999" stroke="#0E0F0F" stroke-width="0.9049" stroke-miterlimit="10" stroke-linecap="round" stroke-linejoin="round"/>
<path d="M4.3999 18.5H21.6999" stroke="#0E0F0F" stroke-width="0.9049" stroke-miterlimit="10" stroke-linecap="round" stroke-linejoin="round"/>
<path d="M4.3999 23.8H21.6999" stroke="#0E0F0F" stroke-width="0.9049" stroke-miterlimit="10" stroke-linecap="round" stroke-linejoin="round"/>
<path d="M4.3999 29.1H21.6999" stroke="#0E0F0F" stroke-width="0.9049" stroke-miterlimit="10" stroke-linecap="round" stroke-linejoin="round"/>
<path d="M4.3999 34.3H21.6999" stroke="#0E0F0F" stroke-width="0.9049" stroke-miterlimit="10" stroke-linecap="round" stroke-linejoin="round"/>
<path d="M4.3999 39.6H21.6999" stroke="#0E0F0F" stroke-width="0.9049" stroke-miterlimit="10" stroke-linecap="round" stroke-linejoin="round"/>
<path d="M39.2998 25.4C39.2998 25.1 39.2998 24.8 39.3998 24.5" stroke="#0E0F0F" stroke-width="0.9049" stroke-linecap="round" stroke-linejoin="round"/>
<path d="M39.1999 22.7001C39.1999 22.6001 39.0999 22.4 39.0999 22.3C38.6999 21.3 37.5999 20.5 36.5999 20.8C36.0999 20.9 35.5999 21.4001 35.1999 21.7001C34.6999 22.0001 34.0999 22.3001 33.5999 22.0001C32.8999 21.7001 32.7999 20.6 32.2999 20.1C31.7999 19.6 31.0999 19.5 30.3999 19.6C30.0999 19.6 29.6999 19.7001 29.4999 19.9001C29.0999 20.2001 28.9999 20.6001 28.8999 21.0001C28.2999 23.1001 27.9999 25.4001 28.8999 27.4001C29.7999 29.3001 31.6999 30.5 32.5999 32.3C32.8999 32.8 32.9999 33.4001 32.7999 33.9001C32.4999 34.5001 31.8999 34.7001 31.3999 35.0001C29.6999 35.9001 28.4999 37.7001 28.2999 39.7001C28.0999 41.6001 28.8999 43.6001 30.2999 44.9001C30.7999 45.3001 31.2999 45.6001 31.8999 45.5001C32.5999 45.4001 32.9999 44.7001 33.3999 44.2001C33.7999 43.7001 34.3999 43.2001 34.9999 43.0001C35.5999 42.8001 36.3999 42.7 36.9999 43.1C37.2999 43.3 37.5999 43.6 37.9999 43.8" stroke="#0E0F0F" stroke-width="0.9049" stroke-linecap="round" stroke-linejoin="round" stroke-dasharray="1.84 1.84"/>
<path d="M38.7998 43.9001C39.0998 43.9001 39.3998 43.7001 39.4998 43.4001" stroke="#0E0F0F" stroke-width="0.9049" stroke-linecap="round" stroke-linejoin="round"/>
<path d="M40.2002 34.4C40.2002 34.6 40.4002 34.7 40.6002 34.7C40.7002 34.7 40.8002 34.7 41.0002 34.7" stroke="#0E0F0F" stroke-width="0.9049" stroke-linecap="round" stroke-linejoin="round"/>
<path d="M42.8002 34.9C43.0002 34.9 43.3002 34.9 43.5002 34.9C44.1002 34.9 44.8002 34.9 45.4002 34.7C46.2002 34.5 47.0002 34 47.9002 34.2C48.5002 34.4 49.0002 34.9 49.3002 35.5C49.9002 36.7 50.1002 38.1 49.8002 39.4C49.6002 40.3 49.2002 41.1 48.9002 42C48.7002 42.6 48.6002 43.3 48.8002 43.9C49.0002 44.3 49.2002 44.6 49.5002 45C50.8002 46.6 51.7002 48.6 51.3002 50.6C51.1002 51.4 50.8002 52.1 50.3002 52.8C49.1002 54.5 47.2002 55.7 45.2002 55.8C43.8002 55.9 42.3002 55.4 41.2002 54.6" stroke="#0E0F0F" stroke-width="0.9049" stroke-linecap="round" stroke-linejoin="round" stroke-dasharray="1.84 1.84"/>
<path d="M40.5 53.8C40.3 53.6 40.1 53.3 40 53.1" stroke="#0E0F0F" stroke-width="0.9049" stroke-linecap="round" stroke-linejoin="round"/>
</svg>
