<svg width="39" height="43" viewBox="0 0 39 43" fill="none" xmlns="http://www.w3.org/2000/svg">
<path d="M17.6001 8.29999C17.6001 10.3 17.3001 12.6 16.7001 15C16.1001 17.4 15.3001 19.5 14.4001 21.1C13.5001 22.8 12.3001 24 11.0001 25C9.7001 25.9 8.2001 26.4 6.6001 26.4C4.6001 26.4 3.0001 25.7 1.8001 24.3C0.700097 22.9 0.100098 20.8 0.100098 18.1C0.100098 15 0.600097 12 1.5001 9.09998C2.4001 6.19998 3.7001 4.10001 5.3001 2.70001C6.9001 1.30001 8.8001 0.599976 10.9001 0.599976C13.1001 0.599976 14.7001 1.29998 15.9001 2.59998C17.1001 3.89998 17.6001 5.79999 17.6001 8.29999ZM36.7001 1.09998L6.1001 42.3H1.8001L32.4001 1.09998H36.7001ZM10.6001 4.09998C9.4001 4.09998 8.2001 4.70002 7.2001 5.90002C6.2001 7.10002 5.4001 8.80001 4.8001 11.2C4.2001 13.5 3.9001 15.8 3.9001 18.1C3.9001 21.3 4.9001 22.9 6.9001 22.9C7.9001 22.9 8.8001 22.5 9.6001 21.8C10.4001 21.1 11.1001 20 11.7001 18.6C12.3001 17.2 12.8001 15.6 13.1001 13.7C13.5001 11.8 13.6001 10.2 13.6001 8.90002C13.6001 5.60002 12.6001 4.09998 10.6001 4.09998ZM38.5001 24.8C38.5001 26.8 38.2001 29 37.6001 31.5C37.0001 34 36.2001 36 35.3001 37.6C34.4001 39.3 33.2001 40.6 31.9001 41.5C30.6001 42.4 29.1001 42.9 27.5001 42.9C25.4001 42.9 23.8001 42.2 22.7001 40.8C21.6001 39.4 21.0001 37.3 21.0001 34.6C21.0001 31.5 21.5001 28.5 22.4001 25.6C23.3001 22.7 24.6001 20.6 26.2001 19.2C27.8001 17.8 29.7001 17.1 31.8001 17.1C34.0001 17.1 35.6001 17.8 36.8001 19.1C37.9001 20.4 38.5001 22.3 38.5001 24.8ZM31.5001 20.6C30.2001 20.6 29.1001 21.2 28.1001 22.4C27.1001 23.6 26.3001 25.4 25.7001 27.7C25.1001 30 24.8001 32.3 24.8001 34.5C24.8001 37.8 25.8001 39.4 27.8001 39.4C29.0001 39.4 30.1001 38.8 31.1001 37.6C32.1001 36.4 32.9001 34.5 33.5001 32C34.1001 29.5 34.5001 27.3 34.5001 25.3C34.6001 22.1 33.5001 20.6 31.5001 20.6Z" fill="black"/>
</svg>
