<svg width="51" height="51" viewBox="0 0 51 51" fill="none" xmlns="http://www.w3.org/2000/svg">
<path d="M50.7314 21.95L41.1314 11.15C40.6314 10.55 39.6314 10.55 39.1314 11.15L35.1314 15.55L21.6314 0.45C21.1314 -0.15 20.1314 -0.15 19.6314 0.45L0.331371 21.95C-0.0686291 22.35 -0.0686292 22.95 0.131371 23.35C0.331371 23.85 0.831371 24.15 1.33137 24.15H10.9314V24.95C10.9314 25.65 11.5314 26.25 12.2314 26.25H17.4314V36.35H19.5314C15.3314 36.45 10.8314 36.45 6.93137 36.35C4.63137 36.35 2.43137 36.25 0.331371 36.25V38.95C2.43137 38.95 4.63137 38.95 6.93137 39.05C21.7314 39.25 31.6314 39.15 34.7314 36.05C35.4314 35.35 35.7314 34.55 35.7314 33.65C35.7314 31.85 34.0314 31.15 32.7314 30.55C31.2314 29.85 30.4314 29.45 30.4314 28.55C31.0314 27.65 34.6314 26.55 39.6314 25.55C38.8314 26.35 38.3314 27.15 38.3314 28.15C38.3314 30.15 40.4314 30.55 42.5314 31.05C45.7314 31.65 47.7314 32.25 47.7314 34.65C47.7314 36.65 46.9314 38.35 45.3314 39.95C35.5314 49.45 1.13137 48.15 0.731371 48.15L0.631371 50.85C0.931371 50.85 2.73137 50.95 5.33137 50.95C15.4314 50.95 38.7314 50.05 47.1314 41.95C49.3314 39.85 50.3314 37.45 50.3314 34.75C50.3314 30.05 45.7314 29.05 42.9314 28.55C42.3314 28.45 41.3314 28.25 40.9314 28.05C41.4314 26.95 45.1314 25.25 49.1314 24.35H49.5314C50.0314 24.35 50.5314 24.05 50.7314 23.55C50.9314 23.05 51.1314 22.35 50.7314 21.95ZM13.6314 23.65V20.75H24.6314L25.7314 22.15L24.6314 23.55H13.6314V23.65ZM27.8314 28.45C27.8314 31.25 30.2314 32.25 31.7314 32.95C32.2314 33.15 32.9314 33.45 33.1314 33.75C33.1314 33.85 33.0314 33.95 32.9314 34.15C31.4314 35.65 26.2314 36.15 20.1314 36.35V26.25H25.3314C25.7314 26.25 26.1314 26.05 26.4314 25.75L27.6314 24.15H33.8314C28.7314 25.65 27.8314 27.05 27.8314 28.45ZM28.5314 21.55L28.4314 21.45L26.3314 18.65C26.0314 18.35 25.7314 18.15 25.2314 18.15H20.0314V16.65H17.3314V18.15H12.1314C11.4314 18.15 10.8314 18.75 10.8314 19.45V21.55H4.23137L20.5314 3.35L34.1314 18.55C34.6314 19.15 35.6314 19.15 36.1314 18.55L40.1314 14.15L46.7314 21.55H28.5314Z" fill="black"/>
</svg>
