<svg width="122" height="122" viewBox="0 0 122 122" fill="none" xmlns="http://www.w3.org/2000/svg">
<path d="M53.5577 23.534H50.0815L45.3413 7.89734H38.547L33.8067 23.534H30.3306V27.4826H32.7007L30.4886 34.7482L34.2808 35.8538L36.8089 27.4826H47.3954L49.9235 35.8538L53.7157 34.7482L51.5036 27.4826H53.8737L53.5577 23.534ZM37.7569 23.534L41.3911 11.846H42.3392L45.9733 23.534H37.7569Z" fill="black"/>
<path d="M72.3607 21.6386C73.9407 20.2171 75.0468 18.1638 75.0468 15.7946C75.0468 11.53 71.5706 8.05524 67.3044 8.05524H59.562V35.3799H67.3044C71.5706 35.3799 75.0468 31.9051 75.0468 27.6405C75.0468 25.1134 73.9407 23.0601 72.3607 21.6386ZM67.1464 31.2733H63.1962V23.5339H67.1464C69.3585 23.5339 71.0966 25.2713 71.0966 27.4826C71.0966 29.5359 69.3585 31.2733 67.1464 31.2733ZM67.1464 19.5853H63.1962V11.8459H67.1464C69.3585 11.8459 71.0966 13.5833 71.0966 15.7946C71.0966 17.8479 69.3585 19.5853 67.1464 19.5853Z" fill="black"/>
<path d="M92.5855 11.846V7.89734C85.0012 7.89734 78.9969 14.0572 78.8389 21.4807C78.8389 29.0621 85.0012 35.0641 92.4275 35.222V31.2734C87.0553 31.2734 82.6311 26.8509 82.6311 21.4807C82.7891 16.2685 87.2133 11.846 92.5855 11.846Z" fill="black"/>
<path d="M24.3262 39.0127V74.0767H98.4318V39.0127H24.3262ZM94.4816 70.444H28.1184V43.1193H94.4816V70.444Z" fill="black"/>
<path d="M96.5361 78.1833H26.2227V82.132H96.5361V78.1833Z" fill="black"/>
<path d="M96.5361 85.9227H26.2227V89.8714H96.5361V85.9227Z" fill="black"/>
<path d="M96.5361 93.8201H92.5859V97.7687H96.5361V93.8201Z" fill="black"/>
<path d="M88.6357 93.8201H26.2227V97.7687H88.6357V93.8201Z" fill="black"/>
<path d="M121.185 7.89731H106.332V0.157956L10.7377 0C5.36543 0 0.941209 4.42249 0.941209 9.79266L0.783203 111.194C0.783203 116.564 5.20742 120.987 10.5797 120.987L100.328 121.145H106.174V117.196H100.328C97.168 117.196 94.4818 114.511 94.4818 111.352C94.4818 108.193 97.168 105.508 100.328 105.508H104.278H106.174V27.4826H121.027L116.129 17.69L121.185 7.89731ZM92.5857 117.196H10.5797C7.41953 117.196 4.7334 114.511 4.7334 111.352C4.7334 108.193 7.41953 105.508 10.5797 105.508H92.5857C91.3217 107.088 90.5316 109.141 90.5316 111.352C90.5316 113.563 91.3217 115.617 92.5857 117.196ZM102.224 101.559H100.328H20.3762V93.82H16.426V101.559H10.5797C8.36758 101.559 6.31348 102.349 4.7334 103.455L4.8914 9.79266C4.8914 6.63374 7.57754 3.94865 10.7377 3.94865H16.584V89.7134H20.5342V3.94865H102.54L102.224 101.559ZM114.865 23.534H106.332V11.846H114.865L111.863 17.69L114.865 23.534Z" fill="black"/>
<path d="M86.7393 109.299H16.4258V113.247H86.7393V109.299Z" fill="black"/>
<path d="M12.4756 109.299H8.52539V113.247H12.4756V109.299Z" fill="black"/>
</svg>
