<svg width="52" height="49" viewBox="0 0 52 49" fill="none" xmlns="http://www.w3.org/2000/svg">
<path d="M50.8349 21.975L26.8349 0.475006L26.7349 0.375C26.2349 -0.125 25.3349 -0.125 24.8349 0.375L0.834936 21.875C0.234935 22.375 0.234935 23.275 0.734935 23.875C1.03494 24.175 1.43494 24.375 1.83494 24.375C2.13494 24.375 2.53494 24.275 2.73494 23.975L7.03494 20.075V20.875V32.075V45.175C7.03494 47.175 8.63494 48.775 10.6349 48.775H10.7349H10.8349H18.2349C20.0349 48.775 21.6349 47.275 21.6349 45.375V32.675C21.6349 32.375 21.8349 32.175 22.1349 32.175H29.8349C30.1349 32.175 30.3349 32.375 30.3349 32.675V45.375C30.3349 47.175 31.8349 48.775 33.7349 48.775H41.3349C43.3349 48.775 44.9349 46.775 44.9349 44.275V32.575V28.975V20.275L49.2349 24.175C49.5349 24.375 49.8349 24.575 50.1349 24.575C50.5349 24.575 50.9349 24.375 51.2349 24.075C51.4349 23.375 51.4349 22.475 50.8349 21.975ZM41.7349 28.975V32.575V44.275C41.7349 45.275 41.2349 45.875 41.0349 45.875H33.4349C33.1349 45.875 32.9349 45.675 32.9349 45.375V32.675C32.9349 30.875 31.4349 29.275 29.5349 29.275H21.8349C20.0349 29.275 18.4349 30.775 18.4349 32.675V45.375C18.4349 45.675 18.2349 45.875 17.9349 45.875H10.5349H10.4349H10.3349C9.93494 45.875 9.63494 45.575 9.63494 45.175V32.075V20.875V17.575L25.7349 3.27499L41.8349 17.675V28.975H41.7349Z" fill="black"/>
</svg>
