<svg width="52" height="48" viewBox="0 0 52 48" fill="none" xmlns="http://www.w3.org/2000/svg">
<path d="M9.4 35.8H0.9C0.4 35.8 0 35.4 0 34.9V31.6C0 30.7 0.6 29.8 1.5 29.6L7.5 27.8C8.1 27.6 8.8 27.7 9.4 28.1C9.9 28.5 10.3 29.1 10.3 29.8V34.9C10.2 35.4 9.8 35.8 9.4 35.8ZM1.7 34H8.5V29.7C8.5 29.5 8.4 29.4 8.3 29.4C8.2 29.4 8.1 29.3 7.9 29.3L1.9 31.1C1.7 31.2 1.6 31.3 1.6 31.5V34H1.7Z" fill="black"/>
<path d="M50.1998 35.8H41.6998C41.1998 35.8 40.7998 35.4 40.7998 34.9V29.8C40.7998 29.1 41.0998 28.5 41.6998 28.1C42.1998 27.7 42.8998 27.6 43.5998 27.8L49.5998 29.6C50.4998 29.9 51.0998 30.7 51.0998 31.6V34.9C51.0998 35.4 50.6998 35.8 50.1998 35.8ZM42.5998 34H49.3998V31.5C49.3998 31.3 49.2998 31.2 49.0998 31.1L43.0998 29.3C42.8998 29.2 42.7998 29.3 42.6998 29.4C42.5998 29.4 42.4998 29.6 42.4998 29.7V34H42.5998Z" fill="black"/>
<path d="M44.3002 18.7H6.80017C6.60017 18.7 6.30017 18.6 6.20017 18.4C6.00017 18.3 5.90017 18 6.00017 17.8L7.70017 4.2C7.80017 3.8 8.10017 3.5 8.50017 3.5H42.5002C42.9002 3.5 43.3002 3.8 43.3002 4.2L45.0002 17.8C45.0002 18 45.0002 18.3 44.8002 18.5C44.7002 18.6 44.5002 18.7 44.3002 18.7ZM7.80017 17H43.3002L41.8002 5.1H9.30017L7.80017 17Z" fill="black"/>
<path d="M28.1001 25.5H23.0001C22.5001 25.5 22.1001 25.1 22.1001 24.6C22.1001 24.1 22.5001 23.7 23.0001 23.7H28.1001C28.6001 23.7 29.0001 24.1 29.0001 24.6C29.0001 25.1 28.6001 25.5 28.1001 25.5Z" fill="black"/>
<path d="M29.7999 28.9H21.2999C20.7999 28.9 20.3999 28.5 20.3999 28C20.3999 27.5 20.7999 27.1 21.2999 27.1H29.7999C30.2999 27.1 30.6999 27.5 30.6999 28C30.6999 28.5 30.2999 28.9 29.7999 28.9Z" fill="black"/>
<path d="M28.1001 32.3H23.0001C22.5001 32.3 22.1001 31.9 22.1001 31.4C22.1001 30.9 22.5001 30.5 23.0001 30.5H28.1001C28.6001 30.5 29.0001 30.9 29.0001 31.4C29.0001 31.9 28.6001 32.3 28.1001 32.3Z" fill="black"/>
<path d="M15.2999 31.5C13.3999 31.5 11.8999 30 11.8999 28.1C11.8999 26.2 13.3999 24.7 15.2999 24.7C17.1999 24.7 18.6999 26.2 18.6999 28.1C18.6999 30 17.1999 31.5 15.2999 31.5ZM15.2999 26.4C14.3999 26.4 13.5999 27.2 13.5999 28.1C13.5999 29 14.3999 29.8 15.2999 29.8C16.1999 29.8 16.9999 29 16.9999 28.1C16.9999 27.2 16.2999 26.4 15.2999 26.4Z" fill="black"/>
<path d="M35.7999 31.5C33.8999 31.5 32.3999 30 32.3999 28.1C32.3999 26.2 33.8999 24.7 35.7999 24.7C37.6999 24.7 39.1999 26.2 39.1999 28.1C39.1999 30 37.5999 31.5 35.7999 31.5ZM35.7999 26.4C34.8999 26.4 34.0999 27.2 34.0999 28.1C34.0999 29 34.8999 29.8 35.7999 29.8C36.6999 29.8 37.4999 29 37.4999 28.1C37.4999 27.2 36.6999 26.4 35.7999 26.4Z" fill="black"/>
<path d="M7.7002 47.7H4.3002C2.9002 47.7 1.7002 46.6 1.7002 45.1V40C1.7002 39.5 2.1002 39.1 2.6002 39.1H9.4002C9.9002 39.1 10.3002 39.5 10.3002 40V45.1C10.2002 46.5 9.1002 47.7 7.7002 47.7ZM3.4002 40.9V45.2C3.4002 45.7 3.8002 46.1 4.3002 46.1H7.7002C8.2002 46.1 8.6002 45.7 8.6002 45.2V40.9H3.4002Z" fill="black"/>
<path d="M46.7998 47.7H43.3998C41.9998 47.7 40.7998 46.6 40.7998 45.1V40C40.7998 39.5 41.1998 39.1 41.6998 39.1H48.4998C48.9998 39.1 49.3998 39.5 49.3998 40V45.1C49.3998 46.5 48.1998 47.7 46.7998 47.7ZM42.5998 40.9V45.2C42.5998 45.7 42.9998 46.1 43.4998 46.1H46.8998C47.3998 46.1 47.7998 45.7 47.7998 45.2V40.9H42.5998Z" fill="black"/>
<path d="M48.5 40.9H41.7C40.8 40.9 40 40.4 39.5 39.6C39.5 39.5 39.4 39.5 39.4 39.4L39.3 39.2H11.7L11.6 39.4C11.6 39.5 11.6 39.5 11.5 39.6C11 40.4 10.2 40.9 9.3 40.9H2.6C1.2 40.9 0 39.8 0 38.3V34.9C0 34.4 0.4 34 0.9 34H8.6V27.2C8.6 23.4 11.7 20.4 15.4 20.4H35.8C39.6 20.4 42.6 23.5 42.6 27.2V34H50.3C50.8 34 51.2 34.4 51.2 34.9V38.3C51.1 39.7 49.9 40.9 48.5 40.9ZM41 38.8C41.2 39 41.4 39.2 41.7 39.2H48.5C49 39.2 49.4 38.8 49.4 38.3V35.7H41.7C41.2 35.7 40.8 35.3 40.8 34.8V27.1C40.8 24.3 38.5 22 35.7 22H15.3C12.5 22 10.2 24.3 10.2 27.1V34.8C10.2 35.3 9.8 35.7 9.3 35.7H1.7V38.3C1.7 38.8 2.1 39.2 2.6 39.2H9.4C9.7 39.2 9.9 39.1 10.1 38.8L10.3 38.1C10.4 37.7 10.7 37.5 11.1 37.5H40C40.4 37.5 40.7 37.8 40.8 38.1L41 38.8Z" fill="black"/>
<path d="M42.6002 5.1H8.6002C8.0002 5.1 7.7002 4.7 7.7002 4.3C7.7002 1.9 9.6002 0 11.9002 0H39.1002C41.4002 0 43.4002 1.9 43.4002 4.3C43.4002 4.7 43.0002 5.1 42.6002 5.1ZM9.5002 3.4H41.6002C41.2002 2.4 40.3002 1.7 39.2002 1.7H11.9002C10.8002 1.7 9.9002 2.4 9.5002 3.4Z" fill="black"/>
<path d="M16.9998 18.7C16.7998 18.7 16.5998 18.6 16.3998 18.5C16.0998 18.2 16.0998 17.6 16.3998 17.3L24.0998 9.6C24.3998 9.3 24.9998 9.3 25.2998 9.6C25.5998 9.9 25.5998 10.5 25.2998 10.8L17.5998 18.5C17.4998 18.6 17.1998 18.7 16.9998 18.7Z" fill="black"/>
<path d="M20.4 15.3C19.9 15.3 19.5 14.9 19.5 14.4V11C19.5 10.5 19.9 10.1 20.4 10.1C20.9 10.1 21.3 10.5 21.3 11V14.4C21.3 14.9 20.9 15.3 20.4 15.3Z" fill="black"/>
<path d="M27.2 18.7C27 18.7 26.8 18.6 26.6 18.5C26.3 18.2 26.3 17.6 26.6 17.3L34.3 9.6C34.6 9.3 35.2 9.3 35.5 9.6C35.8 9.9 35.8 10.5 35.5 10.8L27.8 18.5C27.7 18.6 27.5 18.7 27.2 18.7Z" fill="black"/>
<path d="M30.6002 15.3C30.1002 15.3 29.7002 14.9 29.7002 14.4V11C29.7002 10.5 30.1002 10.1 30.6002 10.1C31.1002 10.1 31.5002 10.5 31.5002 11V14.4C31.5002 14.9 31.1002 15.3 30.6002 15.3Z" fill="black"/>
<path d="M48.4998 18.7H44.1998C43.6998 18.7 43.2998 18.3 43.2998 17.8C43.2998 17.3 43.6998 16.9 44.1998 16.9H47.5998V15.2C47.5998 14.7 47.9998 14.3 48.4998 14.3C48.9998 14.3 49.3998 14.7 49.3998 15.2V17.8C49.3998 18.3 48.9998 18.7 48.4998 18.7Z" fill="black"/>
<path d="M49.4 16.2H47.7C46.8 16.2 46 15.4 46 14.5V11.1C46 10.2 46.8 9.4 47.7 9.4H49.4C50.3 9.4 51.1 10.2 51.1 11.1V14.5C51.1 15.4 50.3 16.2 49.4 16.2ZM47.7 11.1V14.5H49.4V11.1H47.7Z" fill="black"/>
<path d="M6.8002 18.7H2.6002C2.1002 18.7 1.7002 18.3 1.7002 17.8V15.2C1.7002 14.7 2.1002 14.3 2.6002 14.3C3.1002 14.3 3.5002 14.7 3.5002 15.2V17H6.9002C7.4002 17 7.8002 17.4 7.8002 17.9C7.8002 18.4 7.3002 18.7 6.8002 18.7Z" fill="black"/>
<path d="M3.4 16.2H1.7C0.8 16.2 0 15.4 0 14.5V11.1C0 10.2 0.8 9.4 1.7 9.4H3.4C4.3 9.4 5.1 10.2 5.1 11.1V14.5C5.1 15.4 4.3 16.2 3.4 16.2ZM1.7 11.1V14.5H3.4V11.1H1.7Z" fill="black"/>
<path d="M41.7001 35.8H9.4001C8.9001 35.8 8.5001 35.4 8.5001 34.9V29.8C8.5001 29.6 8.3001 29.4 8.2001 29.4H8.1001H8.0001L6.2001 29.9C5.9001 30 5.6001 29.9 5.4001 29.7C5.2001 29.5 5.1001 29.3 5.1001 29L6.0001 17.8C6.0001 17.4 6.4001 17 6.8001 17H44.3001C44.7001 17 45.1001 17.3 45.1001 17.8L45.9001 29C45.9001 29.3 45.8001 29.6 45.6001 29.7C45.4001 29.9 45.1001 29.9 44.8001 29.9L43.0001 29.4H42.9001C42.8001 29.4 42.6001 29.4 42.6001 29.5C42.5001 29.6 42.5001 29.7 42.5001 29.8V34.9C42.6001 35.4 42.2001 35.8 41.7001 35.8ZM10.2001 34H40.8001V29.7C40.8001 29.2 41.0001 28.7 41.3001 28.3C41.7001 27.8 42.4001 27.5 43.0001 27.6C43.2001 27.6 43.3001 27.6 43.5001 27.7L44.1001 27.9L43.4001 18.7H7.6001L6.9001 27.9L7.5001 27.7C7.7001 27.7 7.8001 27.6 8.0001 27.6C8.2001 27.6 8.3001 27.6 8.5001 27.6C9.5001 27.8 10.2001 28.7 10.2001 29.7V34Z" fill="black"/>
</svg>
