<svg width="52" height="35" viewBox="0 0 52 35" fill="none" xmlns="http://www.w3.org/2000/svg">
<path d="M12.3002 26.5C10.9002 26.5 9.7002 27.7 9.7002 29.1C9.7002 30.5 10.9002 31.7 12.3002 31.7C13.7002 31.7 14.9002 30.5 14.9002 29.1C14.8002 27.7 13.7002 26.5 12.3002 26.5ZM12.3002 29.8C11.9002 29.8 11.6002 29.5 11.6002 29.1C11.6002 28.7 11.9002 28.4 12.3002 28.4C12.7002 28.4 13.0002 28.7 13.0002 29.1C13.0002 29.5 12.7002 29.8 12.3002 29.8Z" fill="black"/>
<path d="M38.8002 26.5C37.4002 26.5 36.2002 27.7 36.2002 29.1C36.2002 30.5 37.4002 31.7 38.8002 31.7C40.2002 31.7 41.4002 30.5 41.4002 29.1C41.4002 27.7 40.2002 26.5 38.8002 26.5ZM38.8002 29.8C38.4002 29.8 38.1002 29.5 38.1002 29.1C38.1002 28.7 38.4002 28.4 38.8002 28.4C39.2002 28.4 39.5002 28.7 39.5002 29.1C39.5002 29.5 39.2002 29.8 38.8002 29.8Z" fill="black"/>
<path d="M49.9 24.6V15.8V6.29999C49.9 3.29999 47.5 0.899963 44.5 0.899963H9.5C4.9 0.899963 1.1 4.69999 1.1 9.29999V24.6C0.5 25.1 0 26 0 26.9V27C0 28.6 1.3 30 3 30H6.8C7.2 32.6 9.6 34.7 12.3 34.7C15 34.7 17.4 32.7 17.8 30H33.3C33.7 32.6 36.1 34.7 38.8 34.7C41.6 34.7 43.9 32.7 44.3 30H48.1C49.7 30 51.1 28.7 51.1 27V26.9C51.1 26 50.6 25.1 49.9 24.6ZM48 14.9H45.4C45.3 14.9 45.2 14.8 45.2 14.7V7.5C45.2 7.4 45.3 7.29999 45.4 7.29999H48V14.9ZM1.9 27V26.9C1.9 26.3 2.4 25.8 3 25.8H7.7C7.2 26.5 6.9 27.3 6.8 28.1H3C2.4 28.1 1.9 27.6 1.9 27ZM12.3 32.8C10.2 32.8 8.6 31.1 8.6 29.1C8.6 27 10.3 25.4 12.3 25.4C14.3 25.4 16 27.1 16 29.1C16 31.1 14.3 32.8 12.3 32.8ZM33.3 28.1H17.8C17.4 25.5 15 23.4 12.3 23.4C11.5 23.4 10.7 23.6 10 23.9H3.1V9.19995C3.1 5.59995 6 2.69995 9.6 2.69995H44.6C46.2 2.69995 47.6 3.79999 48 5.29999H45.6C44.4 5.29999 43.5 6.19996 43.5 7.39996V14.6C43.5 15.8 44.4 16.7 45.6 16.7H48V23.9H41.1C40.4 23.6 39.6 23.4 38.8 23.4C36 23.5 33.7 25.5 33.3 28.1ZM38.8 32.8C36.7 32.8 35.1 31.1 35.1 29.1C35.1 27 36.8 25.4 38.8 25.4C40.9 25.4 42.5 27.1 42.5 29.1C42.5 31.1 40.9 32.8 38.8 32.8ZM49.2 27C49.2 27.6 48.7 28.1 48.1 28.1H44.3C44.2 27.3 43.8 26.5 43.4 25.8H48.1C48.7 25.8 49.2 26.3 49.2 26.9V27Z" fill="black"/>
<path d="M40.5998 14.6V7.39996C40.5998 6.19996 39.6998 5.29999 38.4998 5.29999H9.7998C7.2998 5.29999 5.2998 7.29999 5.2998 9.79999V14.6C5.2998 15.8 6.1998 16.7 7.3998 16.7H38.4998C39.6998 16.7 40.5998 15.8 40.5998 14.6ZM23.8998 7.19995H31.1998V14.9H23.8998V7.19995ZM21.9998 14.9H14.6998V7.19995H21.9998V14.9ZM7.0998 14.6V9.79999C7.0998 8.29999 8.2998 7.19995 9.6998 7.19995H12.6998V14.9H7.3998C7.1998 14.9 7.0998 14.8 7.0998 14.6ZM38.6998 14.6C38.6998 14.7 38.5998 14.8 38.4998 14.8H33.0998V7.09998H38.4998C38.5998 7.09998 38.6998 7.19999 38.6998 7.29999V14.6Z" fill="black"/>
<path d="M45.9998 22.5C46.4998 22.5 46.8998 22.1 46.8998 21.6V20.8C46.8998 20.3 46.4998 19.9 45.9998 19.9C45.4998 19.9 45.0998 20.3 45.0998 20.8V21.6C44.9998 22.1 45.4998 22.5 45.9998 22.5Z" fill="black"/>
</svg>
