<svg width="52" height="25" viewBox="0 0 52 25" fill="none" xmlns="http://www.w3.org/2000/svg">
<path d="M49.7 20.7C47.9 20.7 46.2 19.9 45 18.5C44.7 18.1 44.2 17.9 43.7 17.9C43.2 17.9 42.8 18.1 42.4 18.5C41.2 19.9 39.5 20.7 37.7 20.7C35.9 20.7 34.2 19.9 33 18.5C32.7 18.1 32.2 17.9 31.7 17.9C31.2 17.9 30.8 18.1 30.4 18.5C29.2 19.9 27.5 20.7 25.7 20.7C23.9 20.7 22.2 19.9 21 18.5C20.7 18.1 20.2 17.9 19.7 17.9C19.2 17.9 18.8 18.1 18.4 18.5C17.2 19.9 15.5 20.7 13.7 20.7C11.9 20.7 10.2 19.9 9 18.5C8.7 18.1 8.2 17.9 7.7 17.9C7.2 17.9 6.8 18.1 6.4 18.5C5.2 19.9 3.5 20.7 1.7 20.7C0.8 20.7 0 21.4 0 22.4C0 23.4 0.7 24.1 1.7 24.1C3.6 24.1 5.5 23.5 7.1 22.4C7.3 22.3 7.5 22.1 7.7 22C7.9 22.1 8.1 22.3 8.3 22.4C9.9 23.5 11.7 24.1 13.7 24.1C15.7 24.1 17.5 23.5 19.1 22.4C19.3 22.3 19.5 22.1 19.7 22C19.9 22.1 20.1 22.3 20.3 22.4C21.9 23.5 23.7 24.1 25.7 24.1C27.7 24.1 29.5 23.5 31.1 22.4C31.3 22.3 31.5 22.1 31.7 22C31.9 22.1 32.1 22.3 32.3 22.4C33.9 23.5 35.7 24.1 37.7 24.1C39.7 24.1 41.5 23.5 43.1 22.4C43.3 22.3 43.5 22.1 43.7 22C43.9 22.1 44.1 22.3 44.3 22.4C45.9 23.5 47.7 24.1 49.7 24.1C50.6 24.1 51.4 23.4 51.4 22.4C51.4 21.4 50.6 20.7 49.7 20.7Z" fill="black"/>
<path d="M49.7 11.8C47.9 11.8 46.2 11 45 9.59998C44.7 9.19998 44.2 9 43.7 9C43.2 9 42.8 9.19998 42.4 9.59998C41.2 11 39.5 11.8 37.7 11.8C35.9 11.8 34.2 11 33 9.59998C32.7 9.19998 32.2 9 31.7 9C31.2 9 30.8 9.19998 30.4 9.59998C29.2 11 27.5 11.8 25.7 11.8C23.9 11.8 22.2 11 21 9.59998C20.7 9.19998 20.2 9 19.7 9C19.2 9 18.8 9.19998 18.4 9.59998C17.2 11 15.5 11.8 13.7 11.8C11.9 11.8 10.2 11 9 9.59998C8.7 9.19998 8.2 9 7.7 9C7.2 9 6.8 9.19998 6.4 9.59998C5.2 11 3.5 11.8 1.7 11.8C0.8 11.8 0 12.5 0 13.5C0 14.5 0.7 15.2 1.7 15.2C3.6 15.2 5.5 14.6 7.1 13.5C7.3 13.4 7.5 13.2 7.7 13.1C7.9 13.2 8.1 13.4 8.3 13.5C9.9 14.6 11.7 15.2 13.7 15.2C15.7 15.2 17.5 14.6 19.1 13.5C19.3 13.4 19.5 13.2 19.7 13.1C19.9 13.2 20.1 13.4 20.3 13.5C21.9 14.6 23.7 15.2 25.7 15.2C27.7 15.2 29.5 14.6 31.1 13.5C31.3 13.4 31.5 13.2 31.7 13.1C31.9 13.2 32.1 13.4 32.3 13.5C33.9 14.6 35.7 15.2 37.7 15.2C39.7 15.2 41.5 14.6 43.1 13.5C43.3 13.4 43.5 13.2 43.7 13.1C43.9 13.2 44.1 13.4 44.3 13.5C45.9 14.6 47.7 15.2 49.7 15.2C50.6 15.2 51.4 14.5 51.4 13.5C51.4 12.6 50.6 11.8 49.7 11.8Z" fill="black"/>
<path d="M1.9998 6.29999C3.8998 6.29999 5.7998 5.69998 7.3998 4.59998C7.5998 4.49998 7.7998 4.30001 7.9998 4.20001C8.1998 4.30001 8.39981 4.49998 8.5998 4.59998C10.1998 5.69998 11.9998 6.29999 13.9998 6.29999C15.9998 6.29999 17.7998 5.69998 19.3998 4.59998C19.5998 4.49998 19.7998 4.30001 19.9998 4.20001C20.1998 4.30001 20.3998 4.49998 20.5998 4.59998C22.1998 5.69998 23.9998 6.29999 25.9998 6.29999C27.9998 6.29999 29.7998 5.69998 31.3998 4.59998C31.5998 4.49998 31.7998 4.30001 31.9998 4.20001C32.1998 4.30001 32.3998 4.49998 32.5998 4.59998C34.1998 5.69998 35.9998 6.29999 37.9998 6.29999C39.9998 6.29999 41.7998 5.69998 43.3998 4.59998C43.5998 4.49998 43.7998 4.30001 43.9998 4.20001C44.1998 4.30001 44.3998 4.49998 44.5998 4.59998C46.1998 5.69998 47.9998 6.29999 49.9998 6.29999C50.8998 6.29999 51.6998 5.59998 51.6998 4.59998C51.6998 3.69998 50.9998 2.90002 49.9998 2.90002C48.1998 2.90002 46.4998 2.10001 45.2998 0.700012C44.9998 0.300012 44.4998 0.0999756 43.9998 0.0999756C43.4998 0.0999756 43.0998 0.300012 42.6998 0.700012C41.4998 2.10001 39.7998 2.90002 37.9998 2.90002C36.1998 2.90002 34.4998 2.10001 33.2998 0.700012C32.9998 0.300012 32.4998 0.0999756 31.9998 0.0999756C31.4998 0.0999756 31.0998 0.300012 30.6998 0.700012C29.4998 2.10001 27.7998 2.90002 25.9998 2.90002C24.1998 2.90002 22.4998 2.10001 21.2998 0.700012C20.9998 0.300012 20.4998 0.0999756 19.9998 0.0999756C19.4998 0.0999756 19.0998 0.300012 18.6998 0.700012C17.4998 2.10001 15.7998 2.90002 13.9998 2.90002C12.1998 2.90002 10.4998 2.10001 9.2998 0.700012C8.9998 0.300012 8.4998 0.0999756 7.9998 0.0999756C7.4998 0.0999756 7.0998 0.300012 6.6998 0.700012C5.4998 2.10001 3.7998 2.90002 1.9998 2.90002C1.0998 2.90002 0.299805 3.59998 0.299805 4.59998C0.299805 5.49998 0.999805 6.29999 1.9998 6.29999Z" fill="black"/>
</svg>
