<svg width="230" height="170" viewBox="0 0 230 170" fill="none" xmlns="http://www.w3.org/2000/svg">
<path d="M206.88 101.191L172.7 98.9418L150.213 61.164L138.969 42.2751V36.8783C138.969 31.0317 134.472 26.5344 128.626 26.5344C127.276 26.5344 125.927 26.9841 125.028 27.4339L92.197 40.0265L94.4456 31.9312C96.2446 25.1852 93.0964 17.5396 86.8001 14.3915L61.1652 0.449732C59.3663 -0.449739 57.1176 1.01864e-05 55.7684 1.79895L18.4403 62.0635L17.5409 61.6137C15.7419 60.7142 13.0435 61.1641 12.1441 62.963L0.450931 85C-0.448539 86.799 0.0011961 89.4973 2.24987 90.3968L145.266 169.55C145.715 170 146.615 170 147.065 170H205.98C219.022 170 229.816 159.206 229.816 146.164V125.476C229.816 112.884 219.922 102.09 206.88 101.191ZM164.155 100.291L159.657 101.64L124.128 55.7672L133.123 49.0212L164.155 100.291ZM60.7155 8.99468L82.7525 21.1375C85.9007 22.9365 87.2499 26.5344 86.3504 29.6825L83.2023 40.9259L60.2657 27.4339L52.1705 22.4867L60.7155 8.99468ZM37.3292 46.7725L39.5779 43.6243L52.6202 53.5185C59.3663 58.4656 62.5144 66.5608 61.615 75.1058L61.1652 86.3492L25.6361 66.1111L37.3292 46.7725ZM205.98 161.905H147.964L9.44564 85L17.5409 70.1587L148.414 145.714C148.864 146.164 149.763 146.164 150.213 146.164H221.271C221.721 154.709 214.525 161.905 205.98 161.905ZM221.721 138.069H151.562L124.578 122.328L133.573 112.884C134.922 111.085 134.922 108.836 133.573 107.487C132.223 106.138 129.525 106.138 128.176 107.487L117.832 118.28L102.991 109.735L118.282 97.5926C120.081 96.2433 120.081 93.545 118.731 92.1958C117.382 90.3969 114.684 90.3968 113.335 91.746L95.7948 105.688L82.7525 98.4921L102.541 82.3016C104.34 80.9524 104.34 78.2539 102.991 76.9047C101.641 75.1058 98.943 75.1059 97.5938 76.4551L76.0065 94.4445L69.7102 90.8465L70.1599 75.5555C71.5091 64.7619 67.0118 53.5185 58.0171 47.2222L44.525 37.328L49.4721 29.2328L84.5515 50.3703C85.0012 50.8201 85.4509 50.8201 85.9007 50.8201C85.9007 50.8201 85.9007 50.8201 86.3504 50.8201C86.3504 50.8201 86.3504 50.8201 86.8001 50.8201C87.2499 50.8201 87.6996 50.8201 88.1493 50.3703L128.176 35.0794C129.075 34.6296 129.525 35.0794 130.424 35.5291C130.874 35.9789 131.324 36.8783 131.324 37.328V41.8254L116.932 52.619C115.133 53.9682 114.684 56.2169 116.033 58.0159L155.61 109.286C156.509 110.635 158.308 111.085 160.107 110.635L171.35 107.037L206.88 109.735C215.424 110.185 222.171 117.381 222.171 126.376V138.069H221.721Z" fill="black"/>
<path d="M23.836 114.233H4.04762C1.79894 114.233 0 116.032 0 118.281C0 120.529 1.79894 122.328 4.04762 122.328H23.836C26.0847 122.328 27.8836 120.529 27.8836 118.281C27.8836 116.032 26.0847 114.233 23.836 114.233Z" fill="black"/>
<path d="M0 142.116C0 144.365 1.79894 146.164 4.04762 146.164H55.3175C57.5661 146.164 59.3651 144.365 59.3651 142.116C59.3651 139.868 57.5661 138.069 55.3175 138.069H4.04762C1.79894 138.069 0 139.868 0 142.116Z" fill="black"/>
<path d="M98.9418 161.905H4.04762C1.79894 161.905 0 163.704 0 165.952C0 168.201 1.79894 170 4.04762 170H98.9418C101.19 170 102.989 168.201 102.989 165.952C102.989 163.704 101.19 161.905 98.9418 161.905Z" fill="black"/>
</svg>
