<svg width="188" height="188" viewBox="0 0 188 188" fill="none" xmlns="http://www.w3.org/2000/svg">
<path d="M31.5781 103.547C31.5781 105.575 29.9344 107.219 27.9062 107.219C25.8781 107.219 24.2344 105.575 24.2344 103.547C24.2344 101.519 25.8781 99.875 27.9062 99.875C29.9344 99.875 31.5781 101.519 31.5781 103.547Z" fill="black"/>
<path d="M51.9146 144.358C42.1942 138.146 35.3883 128.55 32.752 117.339C32.2873 115.364 30.3108 114.141 28.3372 114.605C26.3635 115.069 25.1386 117.045 25.6033 119.02C28.68 132.103 36.6204 143.299 47.9616 150.545C49.6599 151.631 51.9333 151.148 53.032 149.428C54.1235 147.72 53.6243 145.449 51.9146 144.358Z" fill="black"/>
<path d="M179.893 75.6478C175.665 70.9762 169.626 68.2969 163.325 68.2969H141.734V62.4219C141.734 60.3937 140.091 58.75 138.063 58.75H13.2188C11.1906 58.75 9.54688 60.3937 9.54688 62.4219V107.219C9.54688 127.431 18.7208 146.208 34.0954 158.625H5.875C3.84686 158.625 2.20312 160.269 2.20312 162.297C2.20312 164.325 3.84686 165.969 5.875 165.969C8.0351 165.969 9.9657 167.419 10.571 169.496C13.7408 180.391 23.8887 188 35.25 188H123.375C134.735 188 144.884 180.391 148.054 169.497C148.659 167.419 150.59 165.969 152.75 165.969C154.778 165.969 156.422 164.325 156.422 162.297C156.422 160.269 154.778 158.625 152.75 158.625H117.19C119.987 156.363 122.598 153.87 125.01 151.159C126.215 151.228 127.41 151.267 128.593 151.267C143.324 151.265 156.399 145.89 166.662 135.547C177.154 124.973 183.865 109.815 185.562 92.8669C186.188 86.596 184.122 80.3194 179.893 75.6478ZM141.734 90.3281H163.325C163.431 90.3281 163.473 90.3339 163.55 90.4185C163.651 90.5304 163.648 90.5705 163.637 90.6709C162.643 100.619 158.188 122.79 138.372 128.08C140.604 121.384 141.734 114.395 141.734 107.219V90.3281ZM141.003 167.44C138.74 175.219 131.49 180.656 123.375 180.656H35.25C27.1346 180.656 19.8855 175.223 17.6221 167.442C17.4744 166.935 17.2951 166.439 17.0857 165.964H141.539C141.33 166.441 141.151 166.933 141.003 167.44ZM47.1922 158.625C28.4814 148.252 16.8906 128.642 16.8906 107.219V66.0938H134.391V107.219C134.391 128.866 122.598 148.358 104.098 158.625H47.1922ZM178.255 92.1368C175.752 117.137 159.851 142.751 130.634 143.88C132.276 141.42 133.755 138.857 135.053 136.201C145.386 134.845 154.093 129.778 160.33 121.459C166.073 113.799 169.744 103.406 170.944 91.4067C171.164 89.238 170.48 87.1468 169.004 85.4987C167.531 83.878 165.514 82.9844 163.325 82.9844H141.734V75.6406H163.325C167.618 75.6406 171.568 77.3934 174.449 80.5761C177.33 83.7589 178.681 87.8654 178.255 92.1368Z" fill="black"/>
<path d="M72.5967 31.2109C72.5967 35.5067 73.9636 39.5816 76.445 42.6841C77.7158 44.2733 80.0265 44.5214 81.6057 43.2578C83.1892 41.9913 83.4459 39.6806 82.1794 38.0971C80.7566 36.3171 79.9404 33.8085 79.9404 31.2109C79.9404 28.6133 80.7566 26.1047 82.1794 24.3261C87.3272 17.8917 87.3272 7.8113 82.1794 1.37835C80.9129 -0.205145 78.6022 -0.461889 77.0187 0.804621C75.4338 2.07113 75.1785 4.38183 76.445 5.96676C79.4312 9.69888 79.4312 16.0056 76.445 19.7377C73.9636 22.8402 72.5967 26.9151 72.5967 31.2109Z" fill="black"/>
<path d="M94.6279 31.2109C94.6279 35.5067 95.9948 39.5816 98.4762 42.6841C99.747 44.2733 102.058 44.5214 103.637 43.2578C105.22 41.9913 105.477 39.6806 104.211 38.0971C102.788 36.3171 101.972 33.8085 101.972 31.2109C101.972 28.6133 102.788 26.1047 104.211 24.3261C109.358 17.8917 109.358 7.8113 104.211 1.37835C102.944 -0.205145 100.633 -0.461889 99.05 0.804621C97.465 2.07113 97.2097 4.38183 98.4762 5.96676C101.462 9.69888 101.462 16.0056 98.4762 19.7377C95.9948 22.8402 94.6279 26.9151 94.6279 31.2109Z" fill="black"/>
<path d="M50.5654 31.2109C50.5654 35.5067 51.9323 39.5816 54.4137 42.6841C55.6845 44.2733 57.9952 44.5214 59.5744 43.2578C61.1579 41.9913 61.4147 39.6806 60.1482 38.0971C58.7253 36.3171 57.9092 33.8085 57.9092 31.2109C57.9092 28.6133 58.7253 26.1047 60.1482 24.3261C65.296 17.8917 65.296 7.8113 60.1482 1.37835C58.8816 -0.205145 56.5695 -0.461889 54.9875 0.804621C53.4025 2.07113 53.1472 4.38183 54.4137 5.96676C57.4 9.69888 57.4 16.0056 54.4137 19.7377C51.9323 22.8402 50.5654 26.9151 50.5654 31.2109Z" fill="black"/>
</svg>
