<svg width="188" height="188" viewBox="0 0 188 188" fill="none" xmlns="http://www.w3.org/2000/svg">
<g clip-path="url(#clip0)">
<path d="M106.872 89.1565C107.426 90.2408 108.529 90.8672 109.67 90.8672C110.146 90.8672 110.635 90.7575 111.089 90.5258C111.274 90.4318 129.717 81.0631 138.813 78.1898C140.461 77.6666 141.376 75.9056 140.852 74.2577C140.332 72.6094 138.584 71.6914 136.92 72.2117C127.339 75.2417 109.021 84.5476 108.244 84.9424C106.702 85.7256 106.088 87.6122 106.872 89.1565Z" fill="black"/>
<path d="M109.67 53.2679C110.146 53.2679 110.635 53.1581 111.089 52.9264C111.274 52.8324 129.717 43.4637 138.813 40.5905C140.461 40.0672 141.376 38.3062 140.852 36.6583C140.332 35.01 138.584 34.092 136.92 34.6123C127.338 37.6423 109.021 46.9483 108.244 47.343C106.703 48.1262 106.088 50.0124 106.872 51.5572C107.426 52.6411 108.529 53.2679 109.67 53.2679Z" fill="black"/>
<path d="M184.866 47.0011C183.134 47.0011 181.733 48.4049 181.733 50.1343V172.333C181.733 177.516 177.516 181.733 172.333 181.733H97.1338V174.524C101.702 172.926 113.602 169.2 125.334 169.2C152.628 169.2 171.162 175.244 171.346 175.307C172.289 175.62 173.342 175.464 174.166 174.874C174.984 174.285 175.466 173.339 175.466 172.333V34.468C175.466 32.9985 174.448 31.7262 173.013 31.4097C173.013 31.4097 170.556 30.8615 166.358 30.0904C164.662 29.7772 163.024 30.9052 162.71 32.6034C162.397 34.3079 163.522 35.9404 165.223 36.2536C166.825 36.5481 168.166 36.8081 169.2 37.0152V168.169C162.099 166.308 146.333 162.933 125.333 162.933C111.681 162.933 98.271 167.417 94.1221 168.937C90.4342 167.308 79.2861 162.933 65.8001 162.933C44.2177 162.933 26.4394 166.493 18.8005 168.301V36.8929C25.0577 35.3544 43.5381 31.3345 65.8001 31.3345C77.2243 31.3345 87.0219 34.8906 90.8667 36.4982V159.8C90.8667 160.928 91.4744 161.972 92.4551 162.526C93.4359 163.084 94.6454 163.068 95.6136 162.485C95.9239 162.301 126.969 143.758 154.523 134.574C155.804 134.145 156.666 132.951 156.666 131.6V3.13468C156.666 2.10693 156.162 1.14491 155.316 0.559246C154.476 -0.026781 153.398 -0.161538 152.43 0.199038C127.36 9.6019 101.993 25.3875 101.739 25.5443C100.273 26.4623 99.8249 28.3955 100.743 29.862C101.658 31.3286 103.591 31.7765 105.061 30.8586C105.292 30.7113 127.36 16.9812 150.399 7.71604V129.357C129.011 136.79 106.68 148.925 97.1331 154.358V34.468C97.1331 33.2805 96.4626 32.1962 95.4003 31.6638C94.8613 31.3976 82.0212 25.0681 65.8001 25.0681C37.4876 25.0681 15.7205 31.1938 14.8055 31.4567C13.4612 31.839 12.5337 33.0705 12.5337 34.468V172.334C12.5337 173.314 12.9975 174.242 13.7777 174.834C14.3293 175.251 14.9935 175.467 15.6673 175.467C15.9555 175.467 16.2438 175.427 16.5258 175.345C16.742 175.286 38.4089 169.201 65.8001 169.201C77.2555 169.201 87.0439 172.766 90.8667 174.367V181.734H15.6673C10.4848 181.734 6.26735 177.516 6.26735 172.334V50.1347C6.26735 48.4052 4.8636 47.0015 3.13416 47.0015C1.40472 47.0015 0.000976562 48.4052 0.000976562 50.1347V172.334C0.000976562 180.972 7.02889 188 15.6676 188H172.333C180.972 188 188 180.972 188 172.334V50.1347C187.999 48.4049 186.599 47.0011 184.866 47.0011Z" fill="black"/>
<path d="M106.872 70.3566C107.426 71.4409 108.529 72.0673 109.67 72.0673C110.146 72.0673 110.635 71.9575 111.089 71.7258C111.274 71.6318 129.717 62.2631 138.813 59.3899C140.461 58.8667 141.376 57.1057 140.852 55.4577C140.332 53.8094 138.584 52.8915 136.92 53.4118C127.339 56.4418 109.021 65.7477 108.244 66.1424C106.702 66.9256 106.088 68.8122 106.872 70.3566Z" fill="black"/>
<path d="M106.872 107.956C107.426 109.041 108.529 109.667 109.67 109.667C110.146 109.667 110.635 109.557 111.089 109.326C111.274 109.232 129.717 99.8629 138.813 96.9896C140.461 96.4664 141.376 94.7054 140.852 93.0575C140.332 91.4092 138.584 90.4912 136.92 91.0115C127.339 94.0415 109.021 103.347 108.244 103.742C106.702 104.525 106.088 106.412 106.872 107.956Z" fill="black"/>
<path d="M75.9146 58.1496C56.5666 53.6093 34.5799 59.3936 33.6557 59.6411C31.9858 60.089 30.9925 61.806 31.4405 63.4793C31.8165 64.8797 33.0822 65.801 34.4643 65.801C34.7338 65.801 35.0062 65.7664 35.279 65.6945C35.4891 65.635 56.6576 60.067 74.4863 64.25C76.1625 64.6418 77.8578 63.5982 78.2525 61.9125C78.6469 60.23 77.6004 58.5443 75.9146 58.1496Z" fill="black"/>
<path d="M75.9146 76.9494C56.5666 72.4125 34.5799 78.1934 33.6557 78.4409C31.9858 78.8889 30.9925 80.6062 31.4405 82.2791C31.8165 83.6795 33.0822 84.6008 34.4643 84.6008C34.7338 84.6008 35.0062 84.5663 35.279 84.4943C35.4891 84.4348 56.6576 78.8668 74.4863 83.0498C76.1625 83.4416 77.8578 82.398 78.2525 80.7123C78.6469 79.0299 77.6004 77.3441 75.9146 76.9494Z" fill="black"/>
<path d="M106.872 126.756C107.426 127.841 108.529 128.467 109.67 128.467C110.146 128.467 110.635 128.357 111.089 128.125C111.274 128.031 129.717 118.663 138.813 115.79C140.461 115.266 141.376 113.505 140.852 111.857C140.332 110.209 138.584 109.291 136.92 109.811C127.339 112.841 109.021 122.147 108.244 122.542C106.702 123.325 106.088 125.212 106.872 126.756Z" fill="black"/>
<path d="M75.9146 95.7493C56.5666 91.2123 34.5799 96.99 33.6557 97.2408C31.9858 97.6887 30.9925 99.4061 31.4405 101.079C31.8165 102.479 33.0822 103.404 34.4643 103.404C34.7338 103.404 35.0062 103.367 35.279 103.294C35.4891 103.235 56.6576 97.6667 74.4863 101.85C76.1625 102.241 77.8578 101.198 78.2525 99.5122C78.6469 97.8297 77.6004 96.144 75.9146 95.7493Z" fill="black"/>
<path d="M75.9146 133.349C56.5666 128.809 34.5799 134.593 33.6557 134.841C31.9858 135.288 30.9925 137.006 31.4405 138.679C31.8165 140.079 33.0822 141.004 34.4643 141.004C34.7338 141.004 35.0062 140.966 35.279 140.894C35.4891 140.834 56.6576 135.266 74.4863 139.449C76.1625 139.838 77.8578 138.798 78.2525 137.112C78.6469 135.429 77.6004 133.744 75.9146 133.349Z" fill="black"/>
<path d="M75.9146 114.549C56.5666 110.009 34.5799 115.79 33.6557 116.041C31.9858 116.489 30.9925 118.206 31.4405 119.879C31.8165 121.279 33.0822 122.204 34.4643 122.204C34.7338 122.204 35.0062 122.166 35.279 122.094C35.4891 122.035 56.6576 116.467 74.4863 120.65C76.1625 121.041 77.8578 119.998 78.2525 118.312C78.6469 116.63 77.6004 114.944 75.9146 114.549Z" fill="black"/>
</g>
<defs>
<clipPath id="clip0">
<rect width="188" height="188" fill="white"/>
</clipPath>
</defs>
</svg>
