<svg width="156" height="160" viewBox="0 0 156 160" fill="none" xmlns="http://www.w3.org/2000/svg">
<path d="M153.984 77.8756L143.681 71.0069C143.022 70.5678 142.198 70.4587 141.447 70.7125L122.21 77.2141L116.59 74.0078C115.364 73.3091 113.805 73.7356 113.107 74.9603C112.408 76.185 112.834 77.7444 114.059 78.4431L116.788 80L99.8461 89.665L89.4761 83.6778V76.3225L99.8464 70.335L105.189 73.3828C106.413 74.0812 107.973 73.6553 108.671 72.4303C109.37 71.2056 108.944 69.6462 107.719 68.9475L104.968 67.3781L118.438 59.6012L135.01 64.0419C135.231 64.1012 135.454 64.1294 135.672 64.1294C136.8 64.1294 137.831 63.3772 138.137 62.2363C138.502 60.8741 137.694 59.4744 136.331 59.1091L124.692 55.9903L133.422 50.9503L141.784 53.1909C142.005 53.2503 142.228 53.2784 142.446 53.2784C143.574 53.2784 144.605 52.5262 144.91 51.3853C145.275 50.0231 144.467 48.6231 143.105 48.2581L139.676 47.3394L146.347 43.4878C147.568 42.7828 147.986 41.2213 147.281 40.0003C146.576 38.7788 145.014 38.3609 143.794 39.0659L137.122 42.9175L138.041 39.4884C138.406 38.1263 137.598 36.7262 136.236 36.3613C134.873 35.9959 133.474 36.8044 133.109 38.1666L130.868 46.5281L122.14 51.5678L125.259 39.9287C125.624 38.5666 124.815 37.1666 123.453 36.8016C122.091 36.4362 120.691 37.2447 120.326 38.6069L115.886 55.1784L102.415 62.9559L102.518 43.1056L117.767 29.6966C118.362 29.1737 118.68 28.405 118.629 27.615L117.832 15.2575C117.777 14.4056 117.3 13.6375 116.561 13.2109C115.821 12.7838 114.918 12.755 114.153 13.1334L103.052 18.6222C102.343 18.9731 101.836 19.6331 101.681 20.4094L97.693 40.3203L80.5536 50.3347V34.7803L92.6855 22.6491C93.6826 21.6519 93.6826 20.0356 92.6855 19.0384C91.6883 18.0416 90.072 18.0413 89.0745 19.0384L80.553 27.5581V17.4781L86.6742 11.3569C87.6714 10.3597 87.6714 8.74312 86.6742 7.74594C85.677 6.74906 84.0608 6.74875 83.0633 7.74594L80.553 10.2563V2.55312C80.553 1.14313 79.4101 0 77.9998 0C76.5895 0 75.4467 1.14313 75.4467 2.55312V10.2563L72.9364 7.74594C71.9386 6.74844 70.3223 6.74906 69.3255 7.74594C68.3283 8.74312 68.3283 10.3597 69.3255 11.3569L75.4467 17.4781V27.5581L66.9261 19.0372C65.9286 18.04 64.3123 18.04 63.3152 19.0372C62.318 20.0344 62.318 21.6509 63.3152 22.6478L75.447 34.7791V50.3334L58.3077 40.3194L54.3195 20.4084C54.1642 19.6322 53.6576 18.9722 52.948 18.6213L41.8477 13.1325C41.0827 12.7544 40.1789 12.7831 39.4395 13.21C38.7002 13.6369 38.2233 14.405 38.1683 15.2566L37.3714 27.6141C37.3208 28.4041 37.6386 29.1728 38.2333 29.6956L53.4823 43.1047L53.5852 62.955L40.1142 55.1775L35.6739 38.6059C35.3092 37.2438 33.9092 36.4353 32.5467 36.8006C31.1845 37.1656 30.3764 38.5656 30.7414 39.9278L33.8602 51.5669L25.1305 46.5269L22.8898 38.1653C22.5252 36.8031 21.1252 35.9947 19.7627 36.36C18.4005 36.725 17.5923 38.125 17.9573 39.4872L18.8761 42.9163L12.2052 39.0656C10.983 38.3603 9.42172 38.7791 8.71734 40C8.01234 41.2212 8.43078 42.7825 9.65172 43.4878L16.3227 47.3394L12.8933 48.2581C11.5311 48.6231 10.723 50.0231 11.088 51.3853C11.3933 52.5259 12.4252 53.2784 13.5523 53.2784C13.7711 53.2784 13.9936 53.2503 14.2148 53.1909L22.5767 50.9503L31.3064 55.9903L19.667 59.1091C18.3048 59.4741 17.4967 60.8741 17.8617 62.2363C18.167 63.3769 19.1989 64.1294 20.3261 64.1294C20.5452 64.1294 20.7673 64.1012 20.9886 64.0419L37.5605 59.6012L51.0308 67.3781L33.7886 77.2144L14.5511 70.7125C13.8008 70.4587 12.9761 70.5678 12.3173 71.0069L2.01578 77.8756C1.30547 78.3491 0.878906 79.1459 0.878906 80C0.878906 80.8538 1.30547 81.6509 2.01578 82.1244L12.3192 88.9931C12.7436 89.2763 13.2373 89.4222 13.7358 89.4222C14.0105 89.4222 14.2861 89.3778 14.553 89.2878L33.7905 82.7859L51.0327 92.6222L37.5623 100.399L20.9905 95.9584C19.6277 95.5941 18.2283 96.4016 17.8633 97.7641C17.4983 99.1263 18.3064 100.526 19.6686 100.891L31.308 104.01L22.578 109.05L14.2161 106.809C12.8536 106.445 11.4539 107.252 11.0889 108.615C10.7239 109.977 11.532 111.377 12.8942 111.742L16.3236 112.661L9.65266 116.512C8.43141 117.217 8.01328 118.779 8.71828 120C9.19109 120.819 10.0492 121.277 10.9317 121.277C11.3648 121.277 11.8042 121.167 12.2061 120.934L18.8773 117.083L17.9586 120.512C17.5936 121.874 18.4017 123.274 19.7639 123.639C19.9852 123.698 20.208 123.727 20.4264 123.727C21.5539 123.727 22.5855 122.974 22.8908 121.833L25.1314 113.472L33.8611 108.432L30.7423 120.071C30.3773 121.433 31.1855 122.833 32.5477 123.198C32.7689 123.258 32.9917 123.286 33.2102 123.286C34.3377 123.286 35.3692 122.534 35.6745 121.393L40.1148 104.821L53.5858 97.0438L53.483 116.894L38.2339 130.303C37.6392 130.826 37.3208 131.595 37.372 132.385L38.1689 144.742C38.2236 145.594 38.7011 146.362 39.4402 146.789C39.8342 147.017 40.2752 147.131 40.7167 147.131C41.1039 147.131 41.4908 147.043 41.8483 146.867L52.9486 141.378C53.6583 141.027 54.1648 140.367 54.3202 139.591L58.308 119.68L75.4473 109.666V125.22L63.3155 137.352C62.3183 138.349 62.3183 139.965 63.3155 140.962C64.313 141.959 65.9292 141.96 66.9264 140.962L75.447 132.442V142.522L69.3258 148.643C68.3286 149.64 68.3286 151.257 69.3258 152.253C70.3233 153.251 71.9395 153.251 72.9367 152.253L75.447 149.743V157.447C75.447 158.857 76.5898 160 78.0002 160C79.4105 160 80.5533 158.857 80.5533 157.447V149.743L83.0636 152.254C83.5623 152.752 84.2161 153.002 84.8692 153.002C85.5223 153.002 86.1761 152.753 86.6748 152.254C87.672 151.257 87.672 149.64 86.6748 148.643L80.553 142.522V132.442L89.0736 140.962C89.5723 141.461 90.2255 141.71 90.8792 141.71C91.5326 141.71 92.1861 141.461 92.6848 140.962C93.682 139.965 93.682 138.349 92.6848 137.352L80.553 125.221V109.667L97.6923 119.681L101.68 139.592C101.835 140.368 102.342 141.028 103.052 141.379L114.152 146.868C114.51 147.044 114.897 147.132 115.284 147.132C115.725 147.132 116.166 147.018 116.56 146.79C117.3 146.363 117.776 145.595 117.831 144.743L118.628 132.385C118.679 131.596 118.361 130.827 117.766 130.304L102.517 116.895L102.415 97.0444L115.885 104.822L120.326 121.393C120.631 122.534 121.663 123.287 122.79 123.287C123.009 123.287 123.231 123.258 123.453 123.199C124.815 122.834 125.623 121.434 125.258 120.072L122.139 108.433L130.869 113.473L133.109 121.834C133.415 122.975 134.446 123.727 135.574 123.727C135.793 123.727 136.015 123.699 136.236 123.64C137.598 123.275 138.406 121.875 138.041 120.513L137.123 117.083L143.794 120.935C144.196 121.167 144.635 121.278 145.068 121.278C145.951 121.278 146.809 120.819 147.282 120.001C147.987 118.779 147.568 117.218 146.347 116.513L139.676 112.661L143.106 111.742C144.468 111.377 145.276 109.978 144.911 108.615C144.546 107.253 143.146 106.446 141.784 106.81L133.422 109.051L124.692 104.011L136.332 100.892C137.694 100.527 138.502 99.1269 138.137 97.7647C137.772 96.4025 136.372 95.5947 135.01 95.9591L118.438 100.4L104.968 92.6228L122.21 82.7866L141.447 89.2884C141.714 89.3787 141.99 89.4228 142.264 89.4228C142.763 89.4228 143.256 89.2772 143.681 88.9938L153.984 82.125C154.695 81.6516 155.121 80.8547 155.121 80.0006C155.121 79.1466 154.695 78.3491 153.984 77.8756ZM106.441 22.6428L112.983 19.4081L113.452 26.6909L103.958 35.04L106.441 22.6428ZM42.5473 26.6909L43.017 19.4081L49.5589 22.6428L52.042 35.04L42.5473 26.6909ZM14.1064 84.0484L8.03453 80L14.1067 75.9516L26.0842 80L14.1064 84.0484ZM49.5589 137.357L43.017 140.592L42.5473 133.309L52.042 124.96L49.5589 137.357ZM80.553 56.2478L97.3942 46.4081L97.2933 65.9128L86.923 71.9003L80.5533 68.2228V56.2478H80.553ZM75.4467 56.2478V68.2225L69.077 71.9L58.7067 65.9125L58.6055 46.4078L75.4467 56.2478ZM56.1536 89.665L39.2114 80L56.1536 70.335L66.5236 76.3222V83.6775L56.1536 89.665ZM58.6055 113.592L58.7067 94.0872L69.077 88.0997L75.4464 91.7772V103.752H75.4467L58.6055 113.592ZM77.9998 87.3553L71.6301 83.6778V76.3225L77.9998 72.6447L84.3695 76.3222V83.6775L77.9998 87.3553ZM80.553 103.752V91.7775L86.9223 88.1L97.2926 94.0875L97.3936 113.592L80.553 103.752ZM113.452 133.309L112.983 140.592L106.441 137.357L103.958 124.96L113.452 133.309ZM141.893 84.0484L129.915 80L141.893 75.9516L147.965 80L141.893 84.0484Z" fill="black"/>
</svg>
