<svg width="888" height="965" viewBox="0 0 100 200" fill="none" xmlns="http://www.w3.org/2000/svg">
<mask id="mask0" mask-type="alpha" maskUnits="userSpaceOnUse" x="30" y="154" width="855" height="675">
<path fill-rule="evenodd" clip-rule="evenodd" d="M100.191 712.923C98.8216 712.489 98.8216 712.489 98.8216 712.489L100.191 712.923C115.69 716.303 246.564 728.688 684.362 213.833C684.362 213.833 257.017 767.204 100.191 712.923ZM859.497 200.445L731.889 156.187C706.094 147.249 683.605 168.44 676.428 176.88C675.525 177.359 675.086 178.751 673.963 179.926C558.912 315.666 124.542 812.475 30.9166 660.362C30.9166 660.362 89.8776 783.89 212.913 825.933C333.894 867.326 796.502 354.975 884.689 216.08C872.505 204.567 859.497 200.445 859.497 200.445Z" fill="#6AB8DD"/>
</mask>
<g mask="url(#mask0)">
<rect x="10.9991" y="311" width="435" height="335" fill="#6AB8DD"/>
</g>
</svg>
