<?xml version="1.0" encoding="utf-8"?>
<!-- Generator: Adobe Illustrator 23.0.2, SVG Export Plug-In . SVG Version: 6.00 Build 0)  -->
<svg version="1.1" xmlns="http://www.w3.org/2000/svg" xmlns:xlink="http://www.w3.org/1999/xlink" x="0px" y="0px"
	 viewBox="0 0 100 100" style="enable-background:new 0 0 100 100;" xml:space="preserve">
<style type="text/css">
	.st0{fill-rule:evenodd;clip-rule:evenodd;}
	.st1{fill-rule:evenodd;clip-rule:evenodd;fill:#FFFFFF;}
</style>
<g id="Слой_3">
	<rect class="st0" width="100" height="100"/>
</g>
<g id="Слой_1">
	<path class="st1" d="M71,64.9c-0.3-2.4-1.2-1.7-1.2-5.7h0c0,0.6-0.3,1.2-0.7,1.6C68.4,61.6,67,62,66,62.2c-0.3,0.1-0.6,0.1-1,0.1
		c-0.3,0-0.7,0-1,0.1c-0.4,0.1-0.7,0-1.1,0c-0.6,0-0.4,0-1.1,0c-0.3,0-0.8,0-1.1,0c-0.2,0-0.3,0-0.5,0c-0.2,0-0.4,0-0.6,0l-1.1-0.1
		c-0.4,0-0.7,0-1.1,0c-0.7,0-1.5-0.1-2.1-0.1c-0.7,0-1.4-0.1-2.1-0.1l-3.2-0.2c-0.4,0-0.7,0-1.1,0c-0.4,0-0.7,0-1.1,0l-1.7,0
		c-0.5,0-0.5-0.1-0.9,0.2C45.1,62,45,62,44.9,62.2c-0.7,0.7-1,1.1-1.6,1.8c-0.3,0.4-1.3,1.7-1.5,1.9c0-0.1,1.5-2.1,1.7-2.5
		c0.1-0.1,0.2-0.3,0.3-0.4l2.1-2.8c0.2-0.3,0.5-0.5,0.7-0.8c0.1-0.2,0.2-0.2,0.3-0.4c0.1-0.2,0.2-0.2,0.3-0.4l3.4-3.3l3.3-2.7
		c0.5-0.4,1.1-0.8,1.6-1.2l3.3-2.3c1.5-1.1,3-2.1,4.6-3.1l0.4-0.3c0.6-0.4,1.3-0.8,1.9-1.2c0.2-0.1,0.3-0.1,0.4-0.3
		c0.2-0.5,0.2-1,0.2-1.6l0-2.1c0-1.1,0.3-2-0.8-2.7c-0.6-0.3-3.7-1.6-4.7-2.2c-0.9-0.5-1.9-0.9-2.8-1.4l-4.1-2.2
		c-1.3-0.8-2.6-1.6-3.9-2.4c-0.2-0.1-0.3-0.2-0.4-0.3l-2-1.5c-0.5-0.4-1-0.9-1.5-1.4c-0.2-0.2-0.4-0.5-0.6-0.8L44.8,25
		c-0.6-1.3,0.1-1.9,0.1-2.2c-0.1,0.1-0.1,0.1-0.2,0.2l-0.5,0.6c-1.1,1.4-1.9,2.9-2.3,4.7c-0.1,0.3-0.2,0.9-0.2,1.2
		c0,0.2-0.1,0.4,0,0.6c0.1,0.6,0.3,1,0.7,1.4l1.4,1.4c0.1,0.1,0.2,0.2,0.4,0.3c0.1,0.1,0.2,0.2,0.4,0.3c0.5,0.4,1,0.8,1.6,1.2
		c1.1,0.7,2.2,1.5,3.4,2.1c1.8,1.1,3.6,2,5.4,2.9c0.9,0.5,2.8,1.4,3.7,1.8c0.2,0.1,0.3,0.1,0.5,0.2c0.8,0.4,1.6,0.9,2.4,1.4l0.5,0.3
		c0,0,0.1,0,0.1,0.1l0.1,0.1c-0.3,0-0.9-0.4-1.2-0.5c-0.1,0-0.2-0.1-0.3-0.1l-1.4-0.7c-0.8-0.4-0.7-0.4-1.4,0.1
		c-0.1,0.1-0.2,0.1-0.3,0.2c-0.2,0.1-0.3,0.2-0.5,0.3c-1.2,0.8-2.3,1.7-3.4,2.5c-0.3,0.3-0.6,0.5-0.9,0.7l-5.3,4.1
		c-1.8,1.4-3.5,2.7-5.2,4.1c-0.3,0.3-0.6,0.5-0.9,0.8l-1.9,1.5c-0.2,0.1-0.3,0.2-0.5,0.4L37,58.7c-0.7,0.6-1.4,1.2-2.1,1.7
		c-1.2,0.9-2.1,1.3-1.8,3.2c0.1,0.5,0.2,1,0.2,1.5c0.1,1,0.3,2,0.4,3c0,0.3,0.1,0.4,0.2,0.7c0.5,0.7,1.1,0.6,1.9,0.5
		c0.5-0.1,1-0.1,1.5-0.2l9.9-1c0.2,0,0.6,0,0.8,0c0.1,0,0.2,0,0.4,0c0.2,0,0.2,0,0.4,0l0.8,0c0.5,0,1.1-0.1,1.6-0.1l2.5,0
		c0.3,0,0.5,0,0.8,0l2,0c0.2,0,0.2,0,0.4,0l3.2,0.2c0.6,0.1,2.5,0.1,3.2,0.2c0.4,0,2.3,0,2.5,0c0.5-0.1,0.8,0,1.5-0.2
		c0.9-0.2,1.7-0.5,2.4-1C70.4,66.6,71.1,65.8,71,64.9z"/>
</g>
<g id="Слой_2">
	<g>
		<path class="st0" d="M63.3,38C63.2,38,63.3,38,63.3,38C63.4,38,63.3,37.9,63.3,38z"/>
		<path class="st0" d="M62.9,37.8c0,0-0.1,0,0.1,0C63,37.8,63.1,37.8,62.9,37.8z"/>
		<path class="st0" d="M62.8,37.8c-0.1-0.1-0.1-0.1-0.2-0.1C62.7,37.8,62.7,37.8,62.8,37.8z"/>
		<path class="st0" d="M58.1,35.6c-0.2-0.1-0.4-0.2-0.6-0.3l-4.4-2.3c-0.2-0.1-0.4-0.2-0.6-0.3c-0.4-0.2-0.8-0.5-1.2-0.7
			c-1.1-0.7-2.1-1.3-3.2-2.1c-1.1-0.8-2.4-1.9-3.3-3c-0.5-0.7-0.6-1-0.7-1.2c0,0.7,0.6,1.5,0.9,2l1.7,1.7c1.4,1.2,2.7,1.9,4.3,2.9
			l0.6,0.4c0.1,0.1,0.2,0.1,0.3,0.2l1.5,0.8c0.4,0.2,0.8,0.4,1.3,0.6c1.3,0.6,3.8,1.8,5.2,2.4c0.2,0.1,2.5,1.1,2.7,1.1
			c-0.1-0.1-0.5-0.3-0.6-0.3L58.1,35.6z"/>
		<path class="st0" d="M44.1,25.6C44.1,25.7,44.1,25.5,44.1,25.6C44.2,25.4,44.1,25.5,44.1,25.6z"/>
	</g>
</g>
</svg>
