<svg width="92" height="134" viewBox="0 0 92 134" fill="none" xmlns="http://www.w3.org/2000/svg">
<path d="M2.94299 119.801C-0.480583 122.594 -0.991829 127.633 1.80108 131.057C4.59399 134.481 9.63345 134.992 13.057 132.199L2.94299 119.801ZM84 64L89.057 70.1989C90.973 68.6359 92.0585 66.2748 91.9976 63.8029C91.9367 61.3311 90.7362 59.0263 88.7456 57.5596L84 64ZM12.7456 1.55956C9.18863 -1.06136 4.18047 -0.302551 1.55956 3.25441C-1.06136 6.81137 -0.302551 11.8195 3.25441 14.4404L12.7456 1.55956ZM13.057 132.199L89.057 70.1989L78.943 57.8011L2.94299 119.801L13.057 132.199ZM88.7456 57.5596L12.7456 1.55956L3.25441 14.4404L79.2544 70.4404L88.7456 57.5596Z" fill="#FCC100"/>
</svg>
