<svg width="90" height="130" viewBox="0 0 90 130" fill="none" xmlns="http://www.w3.org/2000/svg">
<path d="M87.0333 115.782C90.4675 118.562 90.998 123.599 88.2182 127.033C85.4384 130.467 80.401 130.998 76.9667 128.218L87.0333 115.782ZM8 62.1017L2.96674 68.3199C1.03659 66.7576 -0.0586271 64.3875 0.00241756 61.905C0.0634627 59.4226 1.27384 57.1092 3.27846 55.6436L8 62.1017ZM77.2785 1.5419C80.8452 -1.06573 85.8505 -0.288254 88.4581 3.27846C91.0657 6.84517 90.2883 11.8505 86.7215 14.4581L77.2785 1.5419ZM76.9667 128.218L2.96674 68.3199L13.0333 55.8835L87.0333 115.782L76.9667 128.218ZM3.27846 55.6436L77.2785 1.5419L86.7215 14.4581L12.7215 68.5598L3.27846 55.6436Z" fill="#FCC100"/>
</svg>
