<svg width="179" height="285" viewBox="0 0 179 285" fill="none" xmlns="http://www.w3.org/2000/svg">
<path opacity="0.94" fill-rule="evenodd" clip-rule="evenodd" d="M175.313 181.632C172.935 175.429 173.511 165.835 173.511 165.835C172.07 190.505 122.423 179.036 59.4463 178.314C49.9349 186.754 46.7644 193.03 38.6942 201.686C38.6942 201.686 38.8383 201.469 39.1265 201.181C39.9912 200.171 40.8558 199.089 41.6485 197.935C43.594 195.482 46.2601 191.875 49.0703 187.547C50.8717 185.023 52.7451 182.354 54.9068 179.541C56.8523 177.016 58.2214 175.501 58.2214 175.501C58.1493 175.501 58.0773 175.501 58.0052 175.501C67.1563 163.96 80.1264 150.399 102.608 134.313C144.184 104.666 155.281 99.4001 155.281 99.4001C156.29 97.2361 156.362 95.2164 156.362 95.2164L156.866 75.5239C156.866 74.0091 156.362 72.7107 155.569 71.7008C154.344 70.1139 152.543 69.104 151.678 68.7434C151.534 68.6712 151.39 68.5991 151.174 68.527C127.539 58.5004 40.6397 19.6925 57.5008 0C57.5008 0 43.1616 13.7054 42.6572 32.6044C42.369 45.9491 88.485 71.268 123.144 86.8489C129.557 90.4556 135.754 93.7016 138.276 95.2164C140.942 96.8033 130.926 92.3311 121.054 87.4981C107.436 95.6492 93.8892 106.83 81.9999 115.702C38.1898 148.307 17.1494 167.639 5.47626 175.718C4.03514 176.727 3.09841 177.882 2.37784 179.108C2.30579 179.18 2.30579 179.252 2.30579 179.324C2.23374 179.541 2.08962 179.685 2.01756 179.901C1.94551 180.046 1.94551 180.118 1.87345 180.262C1.72934 180.695 1.58524 181.055 1.44112 181.416C1.44112 181.488 1.36906 181.56 1.36906 181.632C1.29701 181.849 1.29701 181.993 1.22495 182.21C1.22495 182.282 1.15289 182.354 1.15289 182.498C1.15289 182.715 1.08084 182.859 1.08084 183.075C1.08084 183.147 1.08084 183.219 1.08084 183.219C1.08084 183.364 1.00878 183.508 1.00878 183.58C0.936726 184.013 0.936721 184.446 0.936721 184.734L4.53953 208.683C4.53953 208.683 5.47626 213.227 10.7364 213.155C111.975 199.738 127.467 209.548 156.866 207.673C164.792 207.168 170.413 204.499 174.16 201.686C182.662 195.338 177.907 188.341 175.313 181.632ZM53.2495 12.0463C53.2495 11.9021 53.2495 11.8299 53.2495 11.8299V12.0463C53.3936 14.3546 57.4288 33.1093 146.923 71.4844C146.995 71.4844 52.673 36.2832 53.2495 12.0463ZM7.99823 264.298L5.26009 268.986V284.928H0V237.536H5.26009V260.402L17.8699 237.536H23.2021L11.2408 259.104L23.6344 284.928H18.2302L7.99823 264.298ZM33.6502 270.79H44.1704L38.8383 243.451L33.6502 270.79ZM32.9297 275.334L31.1283 284.856H26.2284L35.3075 237.464H42.9455L52.0245 284.856H46.7644L44.891 275.334H32.9297ZM63.0491 284.928V242.369H54.3303V237.536H77.028V242.369H68.3092V284.928H63.0491ZM84.1616 270.79H94.7539L89.4217 243.451L84.1616 270.79ZM83.5131 275.334L81.7117 284.856H76.8119L85.8909 237.464H93.5289L102.608 284.856H97.3479L95.5465 275.334H83.5131ZM117.74 280.095C121.559 280.095 123.36 277.715 123.36 273.386V249.005C123.36 244.677 121.559 242.297 117.668 242.297H111.975V280.095H117.74ZM117.812 237.536C125.162 237.536 128.548 242.008 128.548 249.294V273.17C128.548 280.456 125.162 284.856 117.812 284.856H106.715V237.464H117.812V237.536ZM154.272 284.928H132.799V280.167L149.012 242.297H133.52V237.464H154.416V242.225L138.132 280.095H154.272V284.928ZM175.961 258.527V263.288H164.432V280.167H178.627V285H159.172V237.608H178.627V242.441H164.432V258.527H175.961Z" fill="#FCC100"/>
</svg>
