<svg width="160" height="188" viewBox="0 0 160 188" fill="none" xmlns="http://www.w3.org/2000/svg">
<path d="M106.473 23.2308C104.583 9.9878 93.0563 0 79.6611 0C71.0465 0 62.8651 4.15699 57.7783 11.1239C56.7393 12.5447 57.0501 14.5378 58.471 15.5768C59.8871 16.6121 61.8849 16.305 62.922 14.8823C66.8158 9.55464 73.0723 6.37318 79.6602 6.37318C89.9047 6.37318 98.7181 14.0076 100.163 24.1298C100.391 25.7196 101.755 26.8669 103.315 26.8669C103.463 26.8669 103.616 26.8557 103.768 26.8351C105.51 26.5859 106.721 24.9718 106.473 23.2308Z" fill="black"/>
<path d="M152.494 58.9017L142.935 42.9692C142.36 42.0086 141.323 41.4224 140.202 41.4224H131.042C129.283 41.4224 127.856 42.8497 127.856 44.6085C127.856 46.3673 129.283 47.7946 131.042 47.7946H138.399L144.134 57.3539H15.1855L20.9211 47.7946H24.2958C26.0545 47.7946 27.4819 46.3673 27.4819 44.6085C27.4819 42.8497 26.0545 41.4224 24.2958 41.4224H19.1175C17.9973 41.4224 16.9601 42.0086 16.3851 42.9692L6.82577 58.9017C6.23485 59.8875 6.22084 61.1132 6.78563 62.1121C7.35041 63.111 8.40903 63.729 9.5582 63.729H149.762C150.911 63.729 151.969 63.111 152.534 62.1121C153.1 61.1132 153.085 59.8856 152.494 58.9017Z" fill="black"/>
<path d="M136.613 29.5209C136.167 28.8011 135.455 28.2905 134.632 28.0982L91.1937 17.9386C90.3713 17.7454 89.5049 17.8891 88.7861 18.3335C88.0692 18.7797 87.5576 19.492 87.3653 20.3154L84.0896 34.3183C83.6881 36.0313 84.7524 37.7452 86.4663 38.1448C88.1793 38.5462 89.8952 37.482 90.2947 35.768L92.8451 24.8691L130.077 33.578L124.227 58.5918C123.825 60.3048 124.889 62.0188 126.603 62.4183C126.849 62.4753 127.092 62.5023 127.333 62.5023C128.78 62.5023 130.09 61.5109 130.431 60.0425L137.007 31.9266C137.202 31.1041 137.06 30.2378 136.613 29.5209Z" fill="black"/>
<path d="M81.3448 37.0536L78.4416 12.4972C78.3426 11.658 77.9141 10.8916 77.2495 10.3688C76.5848 9.84602 75.7456 9.60703 74.9026 9.70599L21.6076 16.0054C19.8609 16.2127 18.6119 17.7959 18.8182 19.5444L23.6585 60.501C23.8508 62.1226 25.2259 63.3147 26.8194 63.3147C26.9436 63.3147 27.0715 63.3063 27.1985 63.2923C28.9441 63.085 30.1932 61.5018 29.9878 59.7533L25.5209 21.9585L72.4876 16.4078L75.0155 37.7995C75.2228 39.5471 76.7986 40.7887 78.5545 40.5908C80.3012 40.3854 81.5502 38.8012 81.3448 37.0536Z" fill="black"/>
<path d="M106.547 59.3311L100.222 33.03C100.024 32.2094 99.5077 31.499 98.788 31.0574C98.0682 30.6196 97.2047 30.4824 96.3785 30.6784L45.0467 43.0234C43.3356 43.4341 42.2826 45.1555 42.6933 46.8667L45.8542 60.0126C46.265 61.7256 47.9864 62.7796 49.6966 62.366C51.4078 61.9553 52.4608 60.2338 52.05 58.5227L49.6331 48.4742L94.7691 37.621L100.349 60.8229C100.699 62.2839 102.006 63.2641 103.444 63.2641C103.692 63.2641 103.942 63.2351 104.193 63.1744C105.904 62.7628 106.957 61.0423 106.547 59.3311Z" fill="black"/>
<path d="M152.948 60.3796C152.86 58.6862 151.461 57.3568 149.764 57.3568H9.56071C7.86356 57.3568 6.46513 58.6852 6.37738 60.3796L0.00419722 184.651C-0.040612 185.523 0.274921 186.376 0.876112 187.009C1.47824 187.641 2.31281 188 3.18659 188H156.136C157.008 188 157.844 187.642 158.449 187.009C159.049 186.376 159.365 185.523 159.321 184.651L152.948 60.3796ZM6.53982 181.627L12.5863 63.7291H146.735L152.781 181.627H6.53982Z" fill="black"/>
<path d="M103.558 70.1013C98.2867 70.1013 93.999 74.389 93.999 79.6606C93.999 84.9322 98.2867 89.2199 103.558 89.2199C108.83 89.2199 113.118 84.9322 113.118 79.6606C113.118 74.389 108.83 70.1013 103.558 70.1013ZM103.558 82.8477C101.801 82.8477 100.372 81.4185 100.372 79.6616C100.372 77.9047 101.801 76.4754 103.558 76.4754C105.315 76.4754 106.744 77.9047 106.744 79.6616C106.744 81.4185 105.315 82.8477 103.558 82.8477Z" fill="black"/>
<path d="M55.7634 70.1013C50.4918 70.1013 46.2041 74.389 46.2041 79.6606C46.2041 84.9322 50.4918 89.2199 55.7634 89.2199C61.035 89.2199 65.3227 84.9322 65.3227 79.6606C65.3227 74.389 61.035 70.1013 55.7634 70.1013ZM55.7634 82.8477C54.0065 82.8477 52.5773 81.4185 52.5773 79.6616C52.5773 77.9047 54.0065 76.4754 55.7634 76.4754C57.5203 76.4754 58.9495 77.9047 58.9495 79.6616C58.9495 81.4185 57.5203 82.8477 55.7634 82.8477Z" fill="black"/>
<path d="M103.562 79.6606H103.316C101.557 79.6606 100.13 81.088 100.13 82.8468C100.13 83.2818 100.216 83.6972 100.376 84.0753V100.372C100.376 111.792 91.0843 121.084 79.6635 121.084C68.2427 121.084 58.9513 111.793 58.9513 100.372V82.8477C58.9513 81.0889 57.524 79.6616 55.7652 79.6616C54.0065 79.6616 52.5791 81.0889 52.5791 82.8477V100.373C52.5791 115.307 64.7289 127.457 79.6635 127.457C94.5981 127.457 106.748 115.307 106.748 100.373V82.8477C106.748 81.0889 105.321 79.6606 103.562 79.6606Z" fill="black"/>
</svg>
