<svg width="42" height="42" viewBox="0 0 42 42" fill="none" xmlns="http://www.w3.org/2000/svg">
<path d="M34.1797 0H7.82037C3.50823 0 0 3.50823 0 7.82029V34.1797C0 38.4918 3.50823 42 7.82037 42H34.1797C38.4918 42 42 38.4918 42 34.1797V7.82029C42 3.50823 38.4918 0 34.1797 0ZM39.5391 34.1797C39.5391 37.1348 37.1348 39.5391 34.1797 39.5391H7.82037C4.86519 39.5391 2.46094 37.1348 2.46094 34.1797V7.82029C2.46094 4.86519 4.86519 2.46094 7.82037 2.46094H34.1797C37.1348 2.46094 39.5391 4.86519 39.5391 7.82029V34.1797Z" fill="black"/>
<path d="M21.0002 11.8617C15.9612 11.8617 11.8619 15.9611 11.8619 21C11.8619 26.0388 15.9612 30.1383 21.0002 30.1383C26.0391 30.1383 30.1384 26.0389 30.1384 21C30.1384 15.961 26.0391 11.8617 21.0002 11.8617ZM21.0002 27.6773C17.3182 27.6773 14.3228 24.6819 14.3228 21C14.3228 17.3181 17.3183 14.3226 21.0002 14.3226C24.682 14.3226 27.6775 17.3181 27.6775 21C27.6775 24.6819 24.6821 27.6773 21.0002 27.6773Z" fill="black"/>
<path d="M33.7322 8.26791C33.5034 8.03905 33.1859 7.90771 32.8619 7.90771C32.5379 7.90771 32.2205 8.03905 31.9916 8.26791C31.7627 8.49678 31.6314 8.81424 31.6314 9.13818C31.6314 9.46221 31.7627 9.77967 31.9916 10.0085C32.2213 10.2374 32.5379 10.3687 32.8619 10.3687C33.1859 10.3687 33.5026 10.2374 33.7322 10.0085C33.9611 9.77885 34.0923 9.46221 34.0923 9.13818C34.0923 8.81424 33.9611 8.49752 33.7322 8.26791Z" fill="black"/>
</svg>
