<svg width="53" height="42" viewBox="0 0 53 42" fill="none" xmlns="http://www.w3.org/2000/svg">
<path d="M48.7275 42H4.27254C1.91752 42 0 39.8645 0 37.2374V4.76255C0 2.13553 1.91752 0 4.27254 0H48.7275C51.0825 0 53 2.13553 53 4.76255V37.2374C53 39.8645 51.0825 42 48.7275 42ZM4.27254 1.90502C2.85918 1.90502 1.70902 3.1871 1.70902 4.76255V37.2374C1.70902 38.8129 2.85918 40.095 4.27254 40.095H48.7275C50.1408 40.095 51.291 38.8129 51.291 37.2374V4.76255C51.291 3.1871 50.1408 1.90502 48.7275 1.90502H4.27254Z" fill="black"/>
<path d="M26.5003 25.7864C25.3638 25.7864 24.2273 25.3654 23.3625 24.5253L1.52301 3.30907C1.16754 2.96235 1.12994 2.36227 1.44098 1.96603C1.75202 1.56597 2.29207 1.52787 2.64754 1.87268L24.4853 23.0889C25.5791 24.15 27.4249 24.1481 28.5152 23.0889L50.3479 1.87459C50.7016 1.52597 51.24 1.56597 51.5545 1.96793C51.8655 2.36418 51.8279 2.96426 51.4724 3.31097L29.638 24.5234C28.7733 25.3654 27.6368 25.7864 26.5003 25.7864Z" fill="black"/>
</svg>
