<?xml version="1.0" encoding="utf-8"?>
<!-- Generator: Adobe Illustrator 22.1.0, SVG Export Plug-In . SVG Version: 6.00 Build 0)  -->
<svg version="1.1" id="Capa_1" xmlns="http://www.w3.org/2000/svg" xmlns:xlink="http://www.w3.org/1999/xlink" x="0px" y="0px"
	 viewBox="0 0 532.3 532.3" style="enable-background:new 0 0 532.3 532.3;" xml:space="preserve">
<style type="text/css">
	.st0{fill:none;stroke:#000000;stroke-width:9.3718;stroke-miterlimit:10;}
</style>
<g>
	<g>
		<path class="st0" d="M441.5,245c6.4-8.3,11.6-15,15.4-20.1c27.2-36.2,39-59.3,35.4-69.4l-1.4-2.4c-0.9-1.4-3.4-2.7-7.3-3.9
			c-3.9-1.2-9-1.4-15.1-0.6l-68,0.5c-1.6-0.2-3.1-0.1-4.7,0.1c-1.6,0.2-2.6,0.5-3.1,0.7c-0.5,0.2-0.9,0.4-1.2,0.6l-0.9,0.7
			c-0.8,0.5-1.7,1.3-2.6,2.5c-0.9,1.2-1.7,2.6-2.4,4.1c-7.4,19-15.8,36.8-25.3,53.1c-5.8,9.8-11.2,18.2-16.1,25.4
			c-4.9,7.2-9,12.4-12.3,15.8c-3.3,3.4-6.3,6.1-9,8.1c-2.7,2.1-4.7,2.9-6.1,2.6c-1.4-0.3-2.8-0.6-4-0.9c-2.2-1.4-4-3.3-5.3-5.8
			c-1.3-2.4-2.2-5.5-2.7-9.2c-0.5-3.7-0.8-6.9-0.8-9.6c-0.1-2.7,0-6.4,0.1-11.3c0.2-4.9,0.2-8.2,0.2-9.9c0-6,0.1-12.5,0.4-19.5
			c0.2-7,0.4-12.6,0.6-16.6c0.2-4.1,0.2-8.4,0.2-13c0-4.6-0.3-8.1-0.8-10.7c-0.6-2.6-1.4-5.1-2.5-7.6c-1.1-2.4-2.7-4.3-4.8-5.7
			c-2.1-1.3-4.8-2.4-7.9-3.2c-8.3-1.9-19-2.9-31.9-3.1c-29.3-0.3-48.1,1.6-56.4,5.7c-3.3,1.7-6.3,4.1-9,7.1
			c-2.8,3.5-3.2,5.4-1.2,5.7c9.4,1.4,16.1,4.8,20.1,10.2l1.4,2.8c1.1,2.1,2.2,5.7,3.3,10.9c1.1,5.2,1.8,10.9,2.1,17.2
			c0.8,11.5,0.8,21.3,0,29.5c-0.8,8.2-1.5,14.6-2.2,19.1c-0.7,4.6-1.8,8.3-3.2,11.1c-1.4,2.8-2.4,4.6-2.8,5.2
			c-0.5,0.6-0.9,1-1.2,1.2c-2,0.8-4.2,1.2-6.4,1.2c-2.2,0-4.9-1.1-8-3.3c-3.1-2.2-6.4-5.2-9.8-9.1c-3.4-3.9-7.2-9.2-11.5-16.2
			c-4.2-6.9-8.7-15.1-13.2-24.6l-3.8-6.9c-2.4-4.4-5.6-10.8-9.7-19.2c-4.1-8.4-7.7-16.6-10.9-24.4c-1.3-3.3-3.1-5.8-5.7-7.6
			l-1.2-0.7c-0.8-0.6-2-1.3-3.8-2c-1.7-0.7-3.5-1.2-5.4-1.5l-64.7,0.5c-6.6,0-11.1,1.5-13.5,4.5l-0.9,1.4c-0.5,0.8-0.7,2.1-0.7,3.8
			c0,1.7,0.5,3.9,1.4,6.4c9.4,22.2,19.7,43.6,30.8,64.2c11.1,20.6,20.7,37.2,28.9,49.8c8.2,12.6,16.5,24.5,25,35.7
			c8.5,11.2,14.1,18.3,16.9,21.5c2.8,3.2,4.9,5.5,6.5,7.1l5.9,5.7c3.8,3.8,9.3,8.3,16.6,13.6c7.3,5.3,15.4,10.5,24.3,15.6
			c8.9,5.1,19.2,9.3,31,12.5c11.8,3.2,23.3,4.5,34.5,3.9h27.2c5.5-0.5,9.7-2.2,12.5-5.2l0.9-1.2c0.6-0.9,1.2-2.4,1.8-4.4
			c0.5-2,0.8-4.1,0.8-6.5c-0.2-6.8,0.4-12.9,1.5-18.3c1.2-5.4,2.5-9.5,4-12.3c1.5-2.7,3.2-5.1,5.1-7c1.9-1.9,3.2-3,4-3.4
			c0.8-0.4,1.4-0.7,1.9-0.8c3.8-1.3,8.2,0,13.3,3.7c5.1,3.7,9.9,8.3,14.4,13.7c4.5,5.4,9.9,11.5,16.2,18.3
			c6.3,6.8,11.8,11.8,16.5,15.1l4.7,2.8c3.1,1.9,7.2,3.6,12.3,5.2c5,1.6,9.4,2,13.2,1.2l60.5-0.9c6,0,10.6-1,13.9-3
			c3.3-2,5.3-4.1,5.9-6.5c0.6-2.4,0.7-5,0.1-8c-0.6-3-1.1-5.1-1.7-6.3c-0.6-1.2-1.1-2.2-1.5-3c-7.9-14.2-22.9-31.6-45.1-52.2
			l-0.5-0.5l-0.2-0.2l-0.2-0.2h-0.2c-10.1-9.6-16.5-16.1-19.1-19.4c-4.9-6.3-6-12.7-3.3-19.1C422.2,271,429.3,260.7,441.5,245z"/>
	</g>
</g>
</svg>
