<svg width="75" height="42" viewBox="0 0 75 42" fill="none" xmlns="http://www.w3.org/2000/svg">
<path d="M60.26,18.61l2-2.61q5.3-7,4.59-9l-.18-.31a1.79,1.79,0,0,0-1-.5,4.56,4.56,0,0,0-2-.08l-8.82.06a2.49,2.49,0,0,0-.61,0,1.23,1.23,0,0,0-.4.09.84.84,0,0,0-.16.07l-.12.1a1.08,1.08,0,0,0-.33.32,3.92,3.92,0,0,0-.32.53,48.76,48.76,0,0,1-3.28,6.89c-.75,1.27-1.45,2.36-2.09,3.3A16.35,16.35,0,0,1,46,19.53a10.17,10.17,0,0,1-1.17,1c-.35.27-.61.38-.79.34l-.52-.12a1.92,1.92,0,0,1-.69-.75,3.41,3.41,0,0,1-.35-1.2,8.65,8.65,0,0,1-.1-1.24c0-.35,0-.83,0-1.47s0-1.06,0-1.28c0-.78,0-1.62.06-2.53s.05-1.64.07-2.16,0-1.09,0-1.68a8,8,0,0,0-.1-1.39,5.23,5.23,0,0,0-.33-1,1.73,1.73,0,0,0-.62-.74,3.51,3.51,0,0,0-1-.41,20.5,20.5,0,0,0-4.14-.41q-5.7-.06-7.31.74a4.25,4.25,0,0,0-1.17.92c-.36.46-.42.71-.16.74a3.81,3.81,0,0,1,2.61,1.33l.18.36A5.52,5.52,0,0,1,31,10.06a14.33,14.33,0,0,1,.27,2.23,22.12,22.12,0,0,1,0,3.83c-.1,1.06-.19,1.89-.28,2.47A4.86,4.86,0,0,1,30.54,20c-.18.37-.31.6-.36.68l-.16.16a2.31,2.31,0,0,1-.83.15,1.93,1.93,0,0,1-1-.43,7.07,7.07,0,0,1-1.27-1.18,15.66,15.66,0,0,1-1.49-2.1,36.07,36.07,0,0,1-1.71-3.19l-.5-.9c-.31-.57-.72-1.4-1.25-2.49s-1-2.15-1.42-3.17a2.05,2.05,0,0,0-.74-1l-.15-.09a2,2,0,0,0-.5-.26,3.15,3.15,0,0,0-.7-.2L10,6.1a2.18,2.18,0,0,0-1.76.58l-.11.18a1,1,0,0,0-.09.5,2.54,2.54,0,0,0,.18.83q1.83,4.32,4,8.33C13.69,19.19,14.93,21.35,16,23s2.14,3.18,3.24,4.63S21.07,30,21.43,30.4s.64.72.85.92l.76.74a18.53,18.53,0,0,0,2.16,1.77,32.4,32.4,0,0,0,3.15,2,16.79,16.79,0,0,0,4,1.63,14.25,14.25,0,0,0,4.48.5h3.53A2.4,2.4,0,0,0,42,37.31l.12-.16a2.35,2.35,0,0,0,.23-.57,3.16,3.16,0,0,0,.11-.84,10.3,10.3,0,0,1,.19-2.38,6.39,6.39,0,0,1,.52-1.59,3.74,3.74,0,0,1,.66-.91,2.58,2.58,0,0,1,.52-.44,1,1,0,0,1,.25-.11,1.91,1.91,0,0,1,1.72.48,10.39,10.39,0,0,1,1.87,1.78c.58.7,1.29,1.49,2.1,2.37a13.54,13.54,0,0,0,2.14,2l.61.37a8,8,0,0,0,1.6.67,3.38,3.38,0,0,0,1.71.16L64.2,38A3.5,3.5,0,0,0,66,37.59a1.46,1.46,0,0,0,.76-.84,2.4,2.4,0,0,0,0-1,4.63,4.63,0,0,0-.22-.82l-.2-.39a30.29,30.29,0,0,0-5.85-6.77l-.07-.06,0,0,0,0h0A30.08,30.08,0,0,1,57.9,25.1a2.34,2.34,0,0,1-.43-2.48A26.74,26.74,0,0,1,60.26,18.61Z" stroke="black" stroke-width="3"/>
</svg>