<svg width="104" height="105" viewBox="0 0 104 105" fill="none" xmlns="http://www.w3.org/2000/svg">
<path d="M86.6201 18.5059V8.81484C86.614 4.03341 82.7395 0.158895 77.9581 0.152832H8.66201C3.88058 0.158895 0.00606341 4.03341 0 8.81484V46.9277C0.0134261 51.3518 3.36692 55.0518 7.76809 55.5005L14.2802 72.4048C16.0005 76.8684 21.0132 79.0919 25.4771 77.3738L66.1431 61.7085C63.3331 69.0483 64.1327 77.282 68.3008 83.9444L69.2961 85.536V102.365C69.2961 103.322 70.0713 104.097 71.0285 104.097H102.212C103.169 104.097 103.944 103.322 103.944 102.365V45.1801C103.928 39.189 101.543 33.4487 97.3068 29.2117L86.6201 18.5059ZM86.6201 28.8665L91.8779 42.5153C92.9083 45.1944 91.573 48.2006 88.8943 49.2318L85.889 50.3925C86.3689 49.3002 86.6175 48.1196 86.6201 46.9277V28.8665ZM3.4648 46.9277V8.81484C3.4648 5.94512 5.79229 3.61764 8.66201 3.61764H77.9581C80.8278 3.61764 83.1553 5.94512 83.1553 8.81484V19.826H83.1401L83.1553 19.8654V46.9277C83.1419 47.23 83.1025 47.5297 83.0375 47.8251L67.1687 31.9545C63.6017 28.4698 57.9151 28.443 54.316 31.8913C50.7161 35.3418 50.4999 41.0241 53.8292 44.7358L60.5942 52.1249H8.66201C5.79229 52.1249 3.4648 49.7974 3.4648 46.9277ZM25.6586 55.5897L13.3395 60.3326L11.517 55.5897H25.6586ZM24.2311 74.1398C21.5528 75.1723 18.5449 73.8371 17.5129 71.1588L14.5903 63.5587L35.27 55.5897V55.5793H63.7697L66.0214 58.0341L24.2311 74.1398ZM100.479 100.632H72.7609V86.7729H100.479V100.632ZM100.479 83.3081H71.99L71.2385 82.1076C67.0145 75.3573 66.8465 66.8312 70.7998 59.9207C71.174 59.2667 71.0822 58.4456 70.5729 57.8903L56.3763 42.4026C54.2593 40.0856 54.3784 36.5034 56.6448 34.3331C58.9121 32.1624 62.496 32.1979 64.7186 34.4119L92.3249 62.0117L94.7745 59.5621L88.3646 53.1522L90.1421 52.4592C94.6021 50.7385 96.8248 45.7302 95.1089 41.2675L89.2451 26.0414L94.8572 31.6652C98.4433 35.2504 100.465 40.1089 100.479 45.1801V83.3081Z" fill="black"/>
<path d="M19.7499 24.4065C22.2377 24.4065 24.2542 22.39 24.2542 19.9022V11.5867C24.2542 9.09897 22.2377 7.08246 19.7499 7.08246H11.4344C8.94669 7.08246 6.93018 9.09897 6.93018 11.5867V19.9022C6.93018 22.39 8.94669 24.4065 11.4344 24.4065H19.7499ZM10.395 19.9022V17.4769H13.8598V14.0121H10.395V11.5867C10.395 11.0128 10.8606 10.5473 11.4344 10.5473H19.7499C20.3238 10.5473 20.7894 11.0128 20.7894 11.5867V14.0121H17.3246V17.4769H20.7894V19.9022C20.7894 20.4761 20.3238 20.9417 19.7499 20.9417H11.4344C10.8606 20.9417 10.395 20.4761 10.395 19.9022Z" fill="black"/>
<path d="M8.66162 29.6036H15.5912V33.0684H8.66162V29.6036Z" fill="black"/>
<path d="M8.66162 39.9981H15.5912V43.4629H8.66162V39.9981Z" fill="black"/>
<path d="M39.8447 39.9981H46.7743V43.4629H39.8447V39.9981Z" fill="black"/>
<path d="M19.0562 29.6036H25.9858V33.0684H19.0562V29.6036Z" fill="black"/>
<path d="M29.4507 29.6036H36.3803V33.0684H29.4507V29.6036Z" fill="black"/>
<path d="M39.8447 29.6036H46.7743V33.0684H39.8447V29.6036Z" fill="black"/>
<path d="M72.7607 8.81482H76.2255V14.012H72.7607V8.81482Z" fill="black"/>
<path d="M65.8311 8.81482H69.2959V14.012H65.8311V8.81482Z" fill="black"/>
<path d="M58.9019 8.81482H62.3667V14.012H58.9019V8.81482Z" fill="black"/>
<path d="M51.9722 8.81482H55.437V14.012H51.9722V8.81482Z" fill="black"/>
</svg>
