<svg width="127" height="104" viewBox="0 0 127 104" fill="none" xmlns="http://www.w3.org/2000/svg">
<path d="M125.786 23.6274L85.6256 8.3081C84.6518 7.9368 83.5618 8.4254 83.1907 9.39874C82.8196 10.373 83.3079 11.4637 84.2817 11.835L119.819 25.3909L95.218 34.7761L64.2781 20.7598C63.3285 20.3293 62.2113 20.751 61.7821 21.7001C61.3519 22.6502 61.7734 23.768 62.7219 24.1984L90.2522 36.6704L63.5 46.8749L7.18076 25.3909L63.5 3.90678L77.379 9.20194C78.3508 9.57227 79.4419 9.08463 79.8139 8.11033C80.185 7.137 79.6967 6.04636 78.7229 5.67506L64.1724 0.123969C63.7393 -0.0408379 63.2607 -0.0418075 62.8276 0.123969L1.21407 23.6274C0.483498 23.9066 0 24.6085 0 25.3909V34.0093C0 34.7916 0.483498 35.4935 1.21407 35.7727L20.4542 43.1115V49.6514C20.4542 50.6936 21.2981 51.539 22.3397 51.539C23.3823 51.539 24.2262 50.6936 24.2262 49.6514V44.5511L62.8276 59.2762C63.0446 59.3586 63.2723 59.4003 63.5 59.4003C63.7277 59.4003 63.9554 59.3586 64.1724 59.2762L93.2695 48.1769V78.0438C84.1344 82.8417 73.8908 85.4127 63.5 85.4127C49.3187 85.4127 35.4087 80.6294 24.2262 71.9246V57.2006C24.2262 56.1584 23.3823 55.313 22.3397 55.313C21.2981 55.313 20.4542 56.1584 20.4542 57.2006V72.8388C20.4542 73.4118 20.7139 73.9537 21.1605 74.3114C33.1278 83.9042 48.1647 89.1867 63.5 89.1867C73.8424 89.1867 84.0472 86.7806 93.2695 82.2736V89.9119C90.23 90.7427 87.9888 93.528 87.9888 96.8289C87.9888 100.782 91.2037 104 95.155 104C99.1073 104 102.322 100.782 102.322 96.8289C102.322 93.528 100.081 90.7427 97.0416 89.9119V80.2804C100.116 78.5305 103.062 76.5392 105.84 74.3114C106.287 73.9537 106.548 73.4118 106.548 72.8388V43.1105L125.786 35.7718C126.517 35.4935 127 34.7916 127 34.0083V25.3909C127 24.6085 126.517 23.9066 125.786 23.6274ZM98.5502 96.8289C98.5502 98.701 97.027 100.225 95.155 100.225C93.284 100.225 91.7609 98.701 91.7609 96.8289C91.7609 94.956 93.284 93.432 95.155 93.432C97.027 93.432 98.5502 94.956 98.5502 96.8289ZM3.77206 28.1305L61.6135 50.1953V54.7731L3.77206 32.7083V28.1305ZM65.3865 54.7731V50.1953L93.2695 39.5585V44.1372L65.3865 54.7731ZM102.775 71.9237C100.935 73.3565 99.0191 74.6808 97.0416 75.8965V46.7373L102.775 44.5502V71.9237ZM97.0416 42.6975V38.1198L123.228 28.1305V32.7083L97.0416 42.6975Z" fill="black"/>
</svg>
