<svg width="89" height="105" viewBox="0 0 89 105" fill="none" xmlns="http://www.w3.org/2000/svg">
<path d="M58.868 13.1498C57.8234 5.82784 51.45 0.305649 44.0439 0.305649C39.281 0.305649 34.7575 2.60403 31.9451 6.45599C31.3706 7.24155 31.5425 8.34351 32.3281 8.91798C33.111 9.49038 34.2156 9.32057 34.789 8.53397C36.9418 5.58835 40.401 3.82934 44.0434 3.82934C49.7076 3.82934 54.5804 8.05034 55.3794 13.6469C55.5054 14.5259 56.2594 15.1602 57.1219 15.1602C57.204 15.1602 57.2886 15.154 57.3728 15.1426C58.3359 15.0048 59.0053 14.1124 58.868 13.1498Z" fill="black"/>
<path d="M84.3135 32.872L79.0282 24.063C78.7102 23.5319 78.1368 23.2078 77.5174 23.2078H72.4525C71.4801 23.2078 70.6909 23.997 70.6909 24.9694C70.6909 25.9418 71.4801 26.731 72.4525 26.731H76.5202L79.6914 32.0163H8.39633L11.5675 26.731H13.4333C14.4058 26.731 15.1949 25.9418 15.1949 24.9694C15.1949 23.997 14.4058 23.2078 13.4333 23.2078H10.5703C9.95095 23.2078 9.37751 23.5319 9.05957 24.063L3.77428 32.872C3.44757 33.4171 3.43983 34.0948 3.75209 34.647C4.06436 35.1993 4.64966 35.541 5.28503 35.541H82.8027C83.4381 35.541 84.0229 35.1993 84.3357 34.647C84.6484 34.0948 84.6402 33.416 84.3135 32.872Z" fill="black"/>
<path d="M75.5318 16.6276C75.2851 16.2296 74.8913 15.9473 74.436 15.841L50.4195 10.2238C49.9648 10.117 49.4858 10.1964 49.0883 10.4421C48.692 10.6888 48.4091 11.0827 48.3028 11.5379L46.4916 19.28C46.2697 20.2271 46.8581 21.1748 47.8057 21.3957C48.7529 21.6176 49.7015 21.0292 49.9224 20.0816L51.3325 14.0556L71.9178 18.8707L68.6831 32.7007C68.4612 33.6478 69.0496 34.5955 69.9972 34.8164C70.133 34.8479 70.2677 34.8628 70.4008 34.8628C71.2009 34.8628 71.925 34.3147 72.1134 33.5028L75.7496 17.9577C75.857 17.5029 75.7785 17.024 75.5318 16.6276Z" fill="black"/>
<path d="M44.9755 20.7923L43.3703 7.21525C43.3156 6.75124 43.0787 6.32748 42.7112 6.03845C42.3437 5.74941 41.8797 5.61727 41.4136 5.67198L11.9471 9.1549C10.9814 9.26949 10.2908 10.1449 10.4049 11.1116L13.0811 33.7563C13.1874 34.6528 13.9477 35.3119 14.8287 35.3119C14.8974 35.3119 14.9681 35.3073 15.0383 35.2995C16.0035 35.1849 16.6941 34.3096 16.5805 33.3428L14.1108 12.4463L40.0784 9.37736L41.4761 21.2047C41.5907 22.1709 42.4619 22.8574 43.4328 22.748C44.3985 22.6344 45.0891 21.7586 44.9755 20.7923Z" fill="black"/>
<path d="M58.9093 33.1095L55.4125 18.5677C55.303 18.114 55.0176 17.7213 54.6197 17.4771C54.2217 17.2351 53.7443 17.1592 53.2875 17.2676L24.9064 24.093C23.9604 24.3201 23.3782 25.2719 23.6053 26.218L25.3529 33.4863C25.58 34.4334 26.5318 35.0161 27.4773 34.7875C28.4234 34.5604 29.0056 33.6086 28.7785 32.6625L27.4422 27.1068L52.3977 21.1061L55.4826 33.9343C55.6762 34.742 56.3988 35.284 57.1942 35.284C57.3309 35.284 57.4693 35.268 57.6081 35.2344C58.5542 35.0068 59.1364 34.0556 58.9093 33.1095Z" fill="black"/>
<path d="M84.5638 33.6891C84.5153 32.7529 83.7421 32.0179 82.8037 32.0179H5.28606C4.34771 32.0179 3.57453 32.7523 3.52602 33.6891L0.00232062 102.398C-0.0224542 102.88 0.152002 103.352 0.484397 103.702C0.817308 104.051 1.27874 104.25 1.76185 104.25H86.3264C86.809 104.25 87.2709 104.052 87.6054 103.702C87.9373 103.352 88.1117 102.88 88.0875 102.398L84.5638 33.6891ZM3.61582 100.726L6.95887 35.541H81.1289L84.4719 100.726H3.61582Z" fill="black"/>
<path d="M57.2575 39.0642C54.3428 39.0642 51.9722 41.4349 51.9722 44.3495C51.9722 47.2642 54.3428 49.6348 57.2575 49.6348C60.1721 49.6348 62.5427 47.2642 62.5427 44.3495C62.5427 41.4349 60.1721 39.0642 57.2575 39.0642ZM57.2575 46.1116C56.2856 46.1116 55.4959 45.3214 55.4959 44.35C55.4959 43.3787 56.2861 42.5884 57.2575 42.5884C58.2288 42.5884 59.019 43.3787 59.019 44.35C59.019 45.3214 58.2288 46.1116 57.2575 46.1116Z" fill="black"/>
<path d="M30.8307 39.0642C27.916 39.0642 25.5454 41.4349 25.5454 44.3495C25.5454 47.2642 27.916 49.6348 30.8307 49.6348C33.7453 49.6348 36.116 47.2642 36.116 44.3495C36.116 41.4349 33.7453 39.0642 30.8307 39.0642ZM30.8307 46.1116C29.8593 46.1116 29.0691 45.3214 29.0691 44.35C29.0691 43.3787 29.8593 42.5884 30.8307 42.5884C31.8021 42.5884 32.5923 43.3787 32.5923 44.35C32.5923 45.3214 31.8021 46.1116 30.8307 46.1116Z" fill="black"/>
<path d="M57.2578 44.3495H57.1221C56.1497 44.3495 55.3605 45.1387 55.3605 46.1111C55.3605 46.3516 55.408 46.5813 55.4962 46.7903V55.8006C55.4962 62.1146 50.3591 67.2522 44.0446 67.2522C37.7302 67.2522 32.593 62.1151 32.593 55.8006V46.1116C32.593 45.1392 31.8038 44.35 30.8314 44.35C29.859 44.35 29.0698 45.1392 29.0698 46.1116V55.8011C29.0698 64.0583 35.7874 70.7759 44.0446 70.7759C52.3018 70.7759 59.0194 64.0583 59.0194 55.8011V46.1116C59.0194 45.1392 58.2302 44.3495 57.2578 44.3495Z" fill="black"/>
</svg>
