<svg width="153" height="153" viewBox="0 0 153 153" fill="none" xmlns="http://www.w3.org/2000/svg">
<path d="M151.003 1.99348C150.995 1.98631 150.987 1.98004 150.98 1.97286C149.714 0.718682 147.97 0 146.19 0H146.181C144.643 0 143.137 0.528926 141.941 1.48787C125.67 14.4839 109.339 27.8983 93.4001 41.3575C89.5243 44.63 85.6453 47.9281 81.7698 51.2445L37.5199 6.99527C33.1504 2.6264 26.0413 2.627 21.6721 6.99527L0.656451 28.0113C-0.218817 28.8868 -0.218817 30.3057 0.656451 31.1809C1.53172 32.0559 2.95085 32.0559 3.82582 31.1809L18.5028 16.5043L21.7101 19.7116L7.03344 34.3882C6.15818 35.2638 6.15818 36.6826 7.03344 37.5579C7.47093 37.9954 8.04468 38.2141 8.61813 38.2141C9.19158 38.2141 9.76533 37.9954 10.2028 37.5579L24.8798 22.8813L28.0871 26.0886L13.4101 40.7652C12.5349 41.6408 12.5349 43.0596 13.4101 43.9349C13.8476 44.3724 14.4214 44.5911 14.9948 44.5911C15.5683 44.5911 16.142 44.3724 16.5795 43.9349L31.2565 29.258L34.4638 32.4653L19.7871 47.1419C18.9119 48.0175 18.9119 49.4363 19.7871 50.3116C20.2246 50.7491 20.7984 50.9678 21.3718 50.9678C21.9453 50.9678 22.519 50.7491 22.9565 50.3116L37.6331 35.635L40.8405 38.8423L26.1638 53.5189C25.2886 54.3945 25.2886 55.8133 26.1638 56.6886C26.6013 57.1261 27.1751 57.3448 27.7485 57.3448C28.322 57.3448 28.8957 57.1261 29.3332 56.6886L44.0098 42.0119L47.2172 45.2193L32.5405 59.8959C31.6652 60.7715 31.6652 62.1903 32.5405 63.0656C32.978 63.5031 33.5518 63.7218 34.1252 63.7218C34.6987 63.7218 35.2724 63.5031 35.7099 63.0656L50.3865 48.3889L53.5939 51.5963L38.9172 66.2729C38.0419 67.1485 38.0419 68.5673 38.9172 69.4426C39.3547 69.8801 39.9284 70.0988 40.5019 70.0988C41.0753 70.0988 41.6491 69.8801 42.0866 69.4426L56.7632 54.7659L59.9708 57.9736L45.2942 72.6502C44.4189 73.5258 44.4189 74.9446 45.2942 75.8199C45.7317 76.2574 46.3054 76.4761 46.8789 76.4761C47.4523 76.4761 48.0261 76.2574 48.4636 75.8199L63.1405 61.1429L66.4608 64.4632C59.5791 70.4562 52.7329 76.4848 45.9639 82.5208C45.9609 82.5208 45.9609 82.5208 45.9609 82.5241C43.9501 84.3126 41.7567 86.3727 39.5929 88.324C38.2673 89.283 38.5198 90.9687 39.1775 91.6264C39.1775 91.6264 39.1775 91.6294 39.1805 91.6294C41.338 94.2411 42.5303 97.576 42.5303 101.024C42.5303 105.055 40.9794 108.827 38.1618 111.642C38.1334 111.67 31.4316 118.372 31.4023 118.401C21.656 128.374 4.49221 121.569 4.48235 107.444C4.48832 98.8682 11.4143 91.7854 20.1645 91.7791C24.9306 91.7821 29.3801 93.9037 32.3714 97.5943C33.1827 98.5942 34.6724 98.7023 35.6167 97.8453C35.6286 97.8363 35.6376 97.8274 35.6495 97.8154L35.6704 97.7972C36.7202 96.8535 36.6461 95.1529 35.4732 94.3129C31.6422 89.8543 26.0691 87.2967 20.1795 87.2967H20.1496C8.94415 87.2967 -0.0129243 96.4214 0.000224091 107.444C-0.00963724 115.749 5.06596 123.086 12.5746 126.135C17.0331 127.941 21.9172 128.065 26.3291 126.651C22.124 139.732 31.9109 153 45.5135 153H45.5374C56.6527 153 65.7113 144.002 65.6991 132.841C65.7051 127.537 63.6611 122.531 59.9526 118.742C59.9547 118.74 64.5289 113.54 64.5289 113.54C72.6032 104.555 80.59 95.5291 88.4799 86.4815L91.8567 89.8582L77.1801 104.535C76.3048 105.41 76.3048 106.829 77.1801 107.705C77.6178 108.142 78.1916 108.361 78.765 108.361C79.3385 108.361 79.9122 108.142 80.35 107.705L95.0267 93.0279L98.234 96.2352L83.5574 110.912C82.6821 111.787 82.6821 113.206 83.5574 114.082C83.9951 114.519 84.5689 114.738 85.1423 114.738C85.7158 114.738 86.2895 114.519 86.7273 114.082L101.404 99.4049L104.611 102.612L89.9343 117.289C89.0591 118.164 89.0591 119.583 89.9343 120.458C90.3721 120.896 90.9459 121.114 91.5193 121.114C92.0928 121.114 92.6665 120.896 93.1043 120.458L107.781 105.782L110.988 108.989L96.3113 123.666C95.4361 124.541 95.4361 125.96 96.3113 126.835C96.7491 127.273 97.3229 127.491 97.8963 127.491C98.4698 127.491 99.0435 127.273 99.4813 126.835L114.158 112.158L117.365 115.366L102.689 130.042C101.813 130.918 101.813 132.337 102.689 133.212C103.126 133.649 103.7 133.868 104.274 133.868C104.847 133.868 105.421 133.649 105.859 133.212L120.535 118.535L123.742 121.742L109.066 136.419C108.19 137.294 108.19 138.713 109.066 139.589C109.503 140.026 110.077 140.245 110.651 140.245C111.224 140.245 111.798 140.026 112.236 139.589L126.912 124.912L130.119 128.119L115.443 142.796C114.567 143.671 114.567 145.09 115.443 145.965C115.88 146.403 116.454 146.622 117.028 146.622C117.601 146.622 118.175 146.403 118.613 145.965L133.289 131.289L136.496 134.496L121.82 149.172C120.944 150.048 120.944 151.467 121.82 152.342C122.257 152.779 122.831 152.998 123.405 152.998C123.978 152.998 124.552 152.779 124.99 152.342L141.249 136.082C141.249 136.082 141.25 136.081 141.251 136.08C141.252 136.08 141.253 136.079 141.253 136.078L146.005 131.326C148.122 129.209 149.288 126.395 149.288 123.402C149.288 120.409 148.122 117.595 146.006 115.478L101.707 71.1824C118.89 51.1364 135.549 31.0297 151.51 11.0537C153.676 8.34298 153.457 4.44806 151.003 1.99348ZM21.6724 13.3346L24.8418 10.1652C27.4631 7.54392 31.7289 7.54392 34.3505 10.1652L78.3583 54.1734C75.5192 56.6124 72.6824 59.058 69.8513 61.5141L21.6724 13.3346ZM142.835 118.65C144.105 119.919 144.805 121.608 144.805 123.404C144.805 125.2 144.105 126.888 142.835 128.158L139.666 131.327C138.185 129.847 94.6098 86.2717 91.43 83.0921C93.8893 80.2614 96.3403 77.4288 98.7794 74.5944L142.835 118.65ZM62.4419 109.151C61.3556 108.32 58.4594 106.88 57.9777 102.791C57.8432 101.661 56.8899 100.812 55.7574 100.812C54.4034 100.812 53.3715 101.988 53.5251 103.317C53.5281 103.317 53.5281 103.317 53.5281 103.317C53.9554 106.971 55.9397 110.202 58.9698 112.177C59.1282 112.282 59.2865 112.389 59.4509 112.508C57.8964 114.282 56.6132 115.775 55.1418 117.4C54.7324 117.855 54.5232 118.467 54.571 119.076C54.6158 119.686 54.9177 120.26 55.3928 120.645C59.1542 123.716 61.2134 128.135 61.217 132.841C61.2107 141.478 54.2525 148.511 45.5288 148.517C36.9064 148.506 29.8406 141.557 29.8406 132.841C29.8508 125.747 34.3371 121.949 34.6816 121.461L41.3305 114.812C44.9936 111.149 47.014 106.194 47.014 101.024C47.0169 97.247 45.9352 93.5983 43.8915 90.4789C45.6462 88.8742 47.1723 87.4503 48.9447 85.8707L48.9537 85.8587C97.5473 42.531 144.167 5.28597 145.043 4.78424C144.442 5.38518 56.9975 92.7918 56.5941 93.2463C55.7723 94.1727 55.859 95.5921 56.7823 96.4109C57.7105 97.2375 59.132 97.1407 59.9469 96.2227C60.215 95.9173 147.572 8.59221 148.212 7.95182C148.029 8.27425 111.935 53.992 62.4419 109.151Z" fill="black"/>
</svg>
