<svg width="52" height="43" viewBox="0 0 52 43" fill="none" xmlns="http://www.w3.org/2000/svg">
<path d="M36.2 0.399963H30.9C30.9 3.29996 28.5 5.69995 25.6 5.69995C22.7 5.69995 20.3 3.29996 20.3 0.399963H15L0 8.89996L4.3 20.6L10.7 18.5V43H40.5V18.5L46.9 20.6L51.2 8.89996L36.2 0.399963ZM45.5 18L41.1 16.5L38.3 15.6V18.6V40.9H12.8V18.6V15.6L10 16.5L5.6 18L2.7 9.89996L15.5 2.59998H18.4C19.3 5.69998 22.2 7.89996 25.5 7.89996C28.9 7.89996 31.7 5.69998 32.6 2.59998H35.5L48.3 9.89996L45.5 18Z" fill="black"/>
</svg>
