<svg width="52" height="53" viewBox="0 0 52 53" fill="none" xmlns="http://www.w3.org/2000/svg">
<path d="M41.7625 8.70001C42.3625 8.70001 42.9625 8.2 42.9625 7.5C42.9625 6.9 42.4625 6.30005 41.7625 6.30005C41.1625 6.30005 40.5625 6.8 40.5625 7.5C40.6625 8.2 41.1625 8.70001 41.7625 8.70001ZM41.7625 7.10004C41.9625 7.10004 42.1625 7.3 42.1625 7.5C42.1625 7.9 41.3625 7.9 41.3625 7.5C41.3625 7.3 41.5625 7.10004 41.7625 7.10004Z" fill="black"/>
<path d="M47.2623 14.4C48.9623 14.4 50.7623 11.8 50.8623 11.7C51.1623 11.3 51.2623 10.8 51.1623 10.4C50.9623 9.60005 50.2623 8.90004 49.1623 8.20004C47.6623 7.40004 44.9623 4.70007 43.5623 3.30007C41.9623 1.50007 39.0623 1.00002 36.4623 2.00002C36.0623 2.20002 35.8623 2.60002 36.0623 3.00002C36.2623 3.40002 36.6623 3.60005 37.0623 3.40005C39.1623 2.50005 41.3623 3.20007 42.3623 4.30007C43.5623 5.60007 46.5623 8.50002 48.3623 9.50002C49.4623 10.2 49.6623 10.6 49.6623 10.7C48.9623 11.8 47.7623 12.9001 47.2623 12.8001C46.9623 12.7001 46.5623 12.5001 46.0623 12.3001C45.2623 11.9001 44.2623 11.3001 43.1623 11.3001C41.6623 11.4001 39.1623 11.0001 38.2623 9.80007C38.0623 9.50007 37.5623 9.40006 37.1623 9.60006C36.8623 9.80006 36.7623 10.3 36.9623 10.7C38.5623 13 42.6623 12.9 43.1623 12.9C43.9623 12.9 44.5623 13.3001 45.2623 13.6001C45.8623 13.9001 46.3623 14.2001 46.9623 14.3001C47.0623 14.4001 47.1623 14.4 47.2623 14.4Z" fill="black"/>
<path d="M36.0622 7.90002C36.3622 7.90002 36.5622 7.80004 36.6622 7.60004C36.8622 7.20004 36.7622 6.8 36.4622 6.5C35.0622 5.6 34.0622 3.90001 33.8622 2.70001C33.8622 2.50001 33.7622 2.30004 33.8622 2.10004C34.9622 2.40004 35.9622 3.4 36.5622 4C36.7622 4.2 36.9622 4.4 37.0622 4.5C37.3622 4.8 37.8622 4.70005 38.1622 4.30005C38.4622 4.00005 38.3622 3.50001 37.9622 3.20001C37.8622 3.10001 37.7622 3.00002 37.5622 2.90002C36.7622 2.10002 35.1622 0.5 33.2622 0.5C32.9622 0.5 32.7622 0.600049 32.6622 0.800049C32.2622 1.30005 32.1622 2.10002 32.3622 2.90002C32.6622 4.60002 34.0622 6.60001 35.6622 7.70001C35.7622 7.90001 35.8622 7.90002 36.0622 7.90002Z" fill="black"/>
<path d="M10.4622 52.3H13.5622C13.7622 52.3 13.9622 52.2 14.1622 52.1C14.2622 51.9 14.3622 51.7 14.3622 51.5C14.3622 51.4 13.8622 44.6 13.9622 42.6C14.0622 40.7 14.0622 38.8 15.0622 37.7L15.3622 37.3C16.7622 35.9 19.0622 33.4 18.7622 27.3C18.7622 26.9 18.4622 26.5 17.9622 26.6C17.5622 26.6 17.1622 27 17.2622 27.4C17.4622 32.9 15.5622 34.9 14.2622 36.3L13.8622 36.7C12.4622 38.3 12.3622 40.5 12.2622 42.6C12.2622 44.2 12.4622 48.9 12.6622 50.8H11.1622C11.1622 49.3 11.3622 46.1 11.6622 43.7C12.0622 40.9 11.4622 37.4 10.2622 34.8L9.76219 33.8C8.76219 31.8 7.66219 29.5 7.26219 26.3C6.86219 23 8.06219 20.2 10.7622 18.3C12.7622 16.9001 16.3622 17.5 19.1622 18C19.8622 18.1 20.5622 18.2 21.1622 18.3C24.5622 18.8 27.7622 18.1 29.0622 17.1C30.2622 16.2 32.3622 13.9 32.9622 11.8L33.2622 10.6C33.6622 9.10004 34.2622 7.00003 34.7622 6.40003C34.9622 6.00003 34.8622 5.60005 34.5622 5.30005C34.1622 5.10005 33.7622 5.2 33.4622 5.5C32.9622 6.3 32.4622 7.90001 31.7622 10.2L31.4622 11.3C30.9622 12.9 29.1622 15 28.1622 15.7C27.2622 16.3 24.6622 17 21.4622 16.6C20.8622 16.5 20.2622 16.4001 19.5622 16.3C16.4622 15.8 12.5622 15.1 10.0622 16.9C6.86219 19.1 5.46219 22.4 5.96219 26.3C6.36219 29.7 7.56219 32.2 8.56219 34.2L9.06219 35.2C10.1622 37.5 10.5622 40.7 10.2622 43.2C9.86219 46.1 9.66219 50.6 9.66219 51.3C9.76219 52 10.0622 52.3 10.4622 52.3Z" fill="black"/>
<path d="M30.5624 52.3H33.7624C33.9624 52.3 34.1624 52.2 34.3624 52C34.4624 51.8 34.5624 51.6 34.5624 51.4C34.5624 51.3 33.7624 45.3 33.7624 43.2C33.7624 41.7 34.4624 39.3 35.6624 36.3C36.4624 34.4 37.1624 30.3 36.9624 27.5C36.9624 27.1 36.5624 26.7 36.1624 26.8C35.7624 26.8 35.4624 27.2 35.4624 27.6C35.6624 30 34.9624 33.9 34.2624 35.7C33.3624 37.9 32.2624 41 32.2624 43.2C32.2624 44.9 32.7624 48.9 32.9624 50.7H31.3624C31.3624 50.1 31.3624 49.3 31.3624 48.4C31.3624 45.2 31.2624 40.8 31.3624 39.6C31.4624 38.2 30.8624 35 30.4624 32.4C30.2624 31.4 30.1624 30.5 30.0624 29.9C29.9624 29.5 29.5624 29.2 29.1624 29.2C28.7624 29.3 28.4624 29.6 28.4624 30.1C28.5624 30.7 28.6624 31.6 28.8624 32.6C29.2624 35 29.8624 38.3 29.7624 39.5C29.6624 40.8 29.7624 45.2 29.7624 48.4C29.7624 49.8 29.7624 50.9 29.7624 51.5C29.7624 51.7 29.8624 51.9 29.9624 52C30.1624 52.3 30.3624 52.3 30.5624 52.3Z" fill="black"/>
<path d="M23.8621 34.8001C26.6621 34.8001 29.1621 34.4001 29.6621 34.3001C30.0621 34.2001 30.3621 33.8001 30.2621 33.4001C30.1621 33.0001 29.7621 32.7001 29.3621 32.8001C26.6621 33.3001 20.6621 33.8001 17.8621 32.1001C17.4621 31.9001 17.0621 32.0001 16.7621 32.4001C16.5621 32.8001 16.6621 33.2 17.0621 33.5C18.8621 34.5 21.5621 34.8001 23.8621 34.8001Z" fill="black"/>
<path d="M36.2623 32.6C36.4623 32.6 36.5623 32.5 36.7623 32.4C38.1623 31.3 40.7623 29.3001 40.5623 24.3001C40.5623 23.2001 40.3623 22.1 40.2623 21.1C39.9623 18.2 39.6623 15.7001 41.1623 12.8001C41.3623 12.4001 41.1623 12.0001 40.8623 11.8001C40.4623 11.6001 40.0623 11.8 39.8623 12.1C38.1623 15.4 38.5623 18.3001 38.8623 21.3001C38.9623 22.3001 39.0623 23.3 39.1623 24.4C39.3623 28.6 37.2623 30.3 35.9623 31.2C35.6623 31.5 35.5623 31.9001 35.8623 32.3001C35.8623 32.5001 36.0623 32.6 36.2623 32.6Z" fill="black"/>
<path d="M20.0622 18.1C26.6622 17.8 28.5622 13.1 29.5622 10.5L29.6622 10.2C30.7622 7.40001 31.3622 5.80004 33.3622 4.80004C33.7622 4.60004 33.8622 4.20004 33.7622 3.80004C33.5622 3.40004 33.1622 3.30002 32.7622 3.40002C30.1622 4.60002 29.3622 6.70003 28.2622 9.60003L28.1622 9.90002C26.9622 13 25.2622 16.3 20.0622 16.5C19.6622 16.5 19.2622 16.9 19.3622 17.3C19.2622 17.8 19.6622 18.1 20.0622 18.1Z" fill="black"/>
<path d="M1.06231 40.4C2.76231 40.4 4.66231 39.5 5.96231 38C7.26231 36.6 7.86231 34.8 7.56231 33.2C7.16231 30.6 6.66231 27.8001 7.36231 26.8001C7.56231 26.4001 7.56231 26 7.16231 25.7C6.76231 25.5 6.36231 25.5 6.06231 25.9C5.16231 27.3 5.46231 29.7 6.06231 33.4C6.36231 35 5.36231 36.2 4.86231 36.9C4.26231 37.6 3.46231 38.1 2.66231 38.4C3.16231 37.3 3.46231 35.7 2.66231 33.4C1.46231 30 0.762314 24.1 2.56231 22C4.36231 19.8 6.66231 19.7 8.56231 20C8.96231 20.1 9.36231 19.8001 9.46231 19.3001C9.56231 18.9001 9.26231 18.5 8.76231 18.4C6.66231 18.1 3.66231 18.1 1.36231 21C-1.03769 24 0.262314 31 1.26231 33.9C2.36231 37 0.962314 38.4 0.362314 38.9C0.0623142 39.1 -0.0376858 39.4 0.0623142 39.7C0.162314 40 0.462314 40.2001 0.762314 40.3001C0.862314 40.4001 0.962314 40.4 1.06231 40.4Z" fill="black"/>
</svg>
