<svg width="52" height="52" viewBox="0 0 52 52" fill="none" xmlns="http://www.w3.org/2000/svg">
<path d="M34.735 28.2C36.635 27.3 38.535 26.7 40.435 26.3C40.935 26.2 41.335 25.7 41.235 25.1C41.135 24.6 40.635 24.2 40.035 24.3C37.835 24.8 35.635 25.5 33.435 26.6C32.235 25.1 30.835 23.6 29.335 22.1C27.735 20.5 26.135 19 24.535 17.7C25.835 16 26.935 14.1 27.835 12C29.135 8.8 29.735 5.1 29.735 1C29.735 0.4 29.335 0 28.735 0C28.135 0 27.735 0.4 27.735 1C27.735 7.2 26.135 12.4 22.935 16.4C22.335 15.9 21.735 15.5 21.235 15.2C18.235 13.2 16.535 12.7 15.535 13.7C15.235 14 15.135 14.3 15.035 14.6L0.335009 49.8C0.135009 50.2 0.235009 50.6 0.535009 50.9C0.735009 51.1 0.935009 51.2 1.23501 51.2C1.33501 51.2 1.53501 51.2 1.63501 51.1L36.735 36.4C37.035 36.3 37.335 36.2 37.635 36C38.535 35 38.135 33.3 36.135 30.3C35.735 29.6 35.235 28.9 34.735 28.2ZM8.13501 44.1C7.93501 45.4 7.43501 46.3 7.23501 46.6L3.03501 48.3L7.23501 38.2C8.13501 40.3 8.43501 42.3 8.13501 44.1ZM14.235 40.7C13.835 43 12.735 44.1 12.435 44.4L9.83501 45.5C10.435 43.4 10.535 40.1 8.33501 35.8L11.335 28.7C14.435 34.5 14.735 38.4 14.235 40.7ZM17.835 42.1L15.635 43C15.835 42.5 16.035 41.9 16.135 41.2C16.935 37.1 15.635 32.1 12.235 26.2L13.335 23.6C14.235 24.6 15.135 26.1 15.535 27C15.735 27.4 16.035 27.6 16.435 27.6C16.535 27.6 16.735 27.6 16.835 27.5C17.335 27.3 17.535 26.7 17.335 26.2C16.735 24.8 15.235 22.7 14.135 21.6L15.735 17.7C16.035 18.2 16.335 18.8 16.835 19.4C17.135 19.8 17.435 20.3 17.835 20.8C21.235 26 21.135 31.3 20.535 34.8C19.935 38.6 18.435 41.4 17.835 42.1ZM25.535 38.9L20.835 40.9C21.535 39.4 22.235 37.4 22.635 35.2C23.135 32.7 23.335 29.5 22.435 26C22.935 26.5 23.435 27 23.935 27.5C25.435 29 26.935 30.4 28.335 31.6C28.135 36.4 26.035 38.5 25.535 38.9ZM28.935 37.5C29.435 36.4 29.935 35 30.135 33.2C30.735 33.7 31.335 34.1 31.835 34.5C32.435 34.9 33.035 35.3 33.535 35.6L28.935 37.5ZM32.435 32.4C30.235 30.9 27.735 28.7 25.235 26.2C22.735 23.7 20.535 21.2 19.035 19C17.535 16.9 17.135 15.8 17.035 15.4C17.535 15.5 18.535 15.9 20.635 17.4C20.935 17.6 21.235 17.9 21.635 18.1C21.535 18.2 21.535 18.2 21.435 18.3C21.035 18.7 21.035 19.3 21.435 19.7C21.635 19.9 21.935 20 22.135 20C22.335 20 22.635 19.9 22.835 19.7C22.935 19.6 23.035 19.4 23.235 19.3C24.735 20.6 26.335 22 27.935 23.6C29.235 24.9 30.535 26.3 31.635 27.6C31.435 27.7 31.235 27.8 31.135 27.9C30.635 28.2 30.535 28.8 30.735 29.3C30.935 29.6 31.235 29.8 31.635 29.8C31.835 29.8 31.935 29.8 32.135 29.7C32.435 29.5 32.735 29.4 32.935 29.2C33.335 29.8 33.735 30.3 34.135 30.8C35.635 32.9 36.035 34 36.135 34.4C35.635 34.3 34.535 33.9 32.435 32.4Z" fill="black"/>
<path d="M18.235 28.9C18.035 28.4 17.435 28.2 16.935 28.4C16.435 28.6 16.235 29.2 16.435 29.7C16.635 30.1 16.935 30.3 17.335 30.3C17.435 30.3 17.535 30.3 17.635 30.2C18.235 30.1 18.535 29.5 18.235 28.9C18.335 29 18.335 28.9 18.235 28.9Z" fill="black"/>
<path d="M37.5349 15.5C37.7349 15.7 38.0349 15.8 38.2349 15.8C38.5349 15.8 38.7349 15.7 38.9349 15.5C41.1349 13.3 44.7349 12.2 47.4349 12C47.9349 12 48.4349 11.5 48.3349 10.9C48.3349 10.4 47.8349 9.89999 47.2349 9.99999C44.2349 10.2 40.1349 11.4 37.5349 14C37.1349 14.5 37.1349 15.2 37.5349 15.5Z" fill="black"/>
<path d="M50.535 10.3C49.935 10.1 49.335 10.5 49.235 11C49.135 11.5 49.435 12.1 49.935 12.2H50.035C50.135 12.2 50.235 12.2 50.335 12.2C50.735 12.2 51.135 11.9 51.335 11.5C51.435 11 51.135 10.4 50.535 10.3Z" fill="black"/>
<path d="M7.53516 8.5H8.53516V9.5C8.53516 10.1 8.93516 10.5 9.53516 10.5C10.1352 10.5 10.5352 10.1 10.5352 9.5V8.5H11.5352C12.1352 8.5 12.5352 8.1 12.5352 7.5C12.5352 6.9 12.1352 6.5 11.5352 6.5H10.5352V5.5C10.5352 4.9 10.1352 4.5 9.53516 4.5C8.93516 4.5 8.53516 4.9 8.53516 5.5V6.5H7.53516C6.93516 6.5 6.53516 6.9 6.53516 7.5C6.53516 8 7.03516 8.5 7.53516 8.5Z" fill="black"/>
<path d="M30.9351 18.1H31.9351V19.1C31.9351 19.7 32.3351 20.1 32.9351 20.1C33.5351 20.1 33.9351 19.7 33.9351 19.1V18.1H34.9351C35.5351 18.1 35.9351 17.7 35.9351 17.1C35.9351 16.5 35.5351 16.1 34.9351 16.1H33.9351V15.1C33.9351 14.5 33.5351 14.1 32.9351 14.1C32.3351 14.1 31.9351 14.5 31.9351 15.1V16.1H30.9351C30.3351 16.1 29.9351 16.5 29.9351 17.1C29.9351 17.7 30.3351 18.1 30.9351 18.1Z" fill="black"/>
<path d="M44.7349 41.8H43.7349V40.8C43.7349 40.2 43.3349 39.8 42.7349 39.8C42.1349 39.8 41.7349 40.2 41.7349 40.8V41.8H40.7349C40.1349 41.8 39.7349 42.2 39.7349 42.8C39.7349 43.4 40.1349 43.8 40.7349 43.8H41.7349V44.8C41.7349 45.4 42.1349 45.8 42.7349 45.8C43.3349 45.8 43.7349 45.4 43.7349 44.8V43.8H44.7349C45.3349 43.8 45.7349 43.4 45.7349 42.8C45.7349 42.2 45.3349 41.8 44.7349 41.8Z" fill="black"/>
<path d="M39.1348 6.10001C40.8348 6.10001 42.1348 4.80001 42.1348 3.10001C42.1348 1.40001 40.8348 0.100006 39.1348 0.100006C37.4348 0.100006 36.1348 1.40001 36.1348 3.10001C36.1348 4.80001 37.4348 6.10001 39.1348 6.10001ZM39.1348 2.10001C39.7348 2.10001 40.1348 2.50001 40.1348 3.10001C40.1348 3.70001 39.7348 4.10001 39.1348 4.10001C38.5348 4.10001 38.1348 3.70001 38.1348 3.10001C38.1348 2.60001 38.5348 2.10001 39.1348 2.10001Z" fill="black"/>
<path d="M45.335 17.4C43.635 17.4 42.335 18.7 42.335 20.4C42.335 22.1 43.635 23.4 45.335 23.4C47.035 23.4 48.335 22.1 48.335 20.4C48.335 18.8 47.035 17.4 45.335 17.4ZM45.335 21.4C44.735 21.4 44.335 21 44.335 20.4C44.335 19.8 44.735 19.4 45.335 19.4C45.935 19.4 46.335 19.8 46.335 20.4C46.335 21 45.935 21.4 45.335 21.4Z" fill="black"/>
<path d="M20.0352 9.60001C21.7352 9.60001 23.0352 8.30001 23.0352 6.60001C23.0352 4.90001 21.7352 3.60001 20.0352 3.60001C18.3352 3.60001 17.0352 4.90001 17.0352 6.60001C17.0352 8.30001 18.4352 9.60001 20.0352 9.60001ZM20.0352 5.69998C20.6352 5.69998 21.0352 6.09998 21.0352 6.69998C21.0352 7.29998 20.6352 7.69998 20.0352 7.69998C19.4352 7.69998 19.0352 7.29998 19.0352 6.69998C19.0352 6.09998 19.5352 5.69998 20.0352 5.69998Z" fill="black"/>
<path d="M45.0352 29.4C45.0352 28.9 44.6352 28.4 44.0352 28.4C43.5352 28.4 43.0352 28.8 43.0352 29.4C43.0352 30 43.4352 30.4 44.0352 30.4C44.6352 30.4 45.0352 30 45.0352 29.4Z" fill="black"/>
<path d="M33.6348 9.60001C34.1348 9.60001 34.6348 9.20001 34.6348 8.60001C34.6348 8.00001 34.2348 7.60001 33.6348 7.60001C33.1348 7.60001 32.6348 8.00001 32.6348 8.60001C32.6348 9.10001 33.1348 9.60001 33.6348 9.60001Z" fill="black"/>
<path d="M47.0352 35.9C46.5352 35.9 46.0352 36.3 46.0352 36.9C46.0352 37.4 46.4352 37.9 47.0352 37.9C47.5352 37.9 48.0352 37.5 48.0352 36.9C48.0352 36.4 47.6352 35.9 47.0352 35.9Z" fill="black"/>
<path d="M14.1348 3.10001C14.6348 3.10001 15.1348 2.70001 15.1348 2.10001C15.1348 1.60001 14.7348 1.10001 14.1348 1.10001C13.5348 1.10001 13.1348 1.50001 13.1348 2.10001C13.1348 2.70001 13.5348 3.10001 14.1348 3.10001Z" fill="black"/>
</svg>
