<svg width="127" height="116" viewBox="0 0 127 116" fill="none" xmlns="http://www.w3.org/2000/svg">
<path d="M109.486 42.3296H108.538C95.7398 42.3296 84.0472 49.4372 78.2009 60.8093C74.5667 59.0719 70.4585 58.1242 66.3503 58.1242C59.398 58.1242 52.9197 60.4934 47.8634 64.9159C47.7054 60.3354 47.2314 55.913 46.5994 51.8064C46.1253 48.3315 45.6513 45.0147 45.6513 42.3296H58.924C60.9781 42.3296 63.0322 41.5399 64.4542 39.9604L75.0408 29.378C78.0429 26.377 78.0429 21.4807 75.1988 18.4797C76.1468 16.9002 76.6208 15.1628 76.4628 13.2675C76.3048 10.8983 75.0408 8.84498 72.9867 7.42347L66.6664 3.15892C63.5062 1.10562 60.03 0 56.2378 0C48.4955 0 41.2271 3.00097 35.6968 8.52909C25.5843 18.6376 17.6839 30.1677 11.9957 42.8034C5.20133 58.1242 1.88315 69.3384 1.88315 76.288C1.88315 80.2367 1.56714 83.5535 0.777098 85.9227C-0.644972 91.135 1.56714 96.5051 6.30737 99.1902C25.2683 110.089 46.9154 115.775 68.7205 115.775H72.5126C86.1013 115.775 99.532 113.563 112.331 109.299L114.227 108.667C121.811 106.14 126.867 99.1902 126.867 91.135V60.3354C126.867 50.8587 119.125 42.6455 109.486 42.3296ZM121.653 91.6088C121.653 97.2949 118.019 102.349 112.647 104.087L110.751 104.718C98.4259 108.825 85.6273 110.878 72.6706 110.878H68.8785C47.8634 110.878 27.1644 105.35 8.9935 94.9257C6.30737 93.3462 5.0433 90.3452 5.83334 87.6601C6.62338 84.8171 7.09741 81.0264 7.09741 76.6039C7.09741 70.444 10.4156 59.5457 16.8939 45.1726C22.2662 33.0107 29.8505 22.1125 39.489 12.4777C43.9132 8.05525 49.9175 5.52812 56.2378 5.52812C58.924 5.52812 61.4521 6.31784 63.6642 7.73936L69.9845 12.0039C70.6165 12.4777 71.0906 13.1095 71.0906 13.8993C71.2486 14.689 70.9326 15.4787 70.3005 15.9526L61.9261 24.3237C60.9781 25.2714 59.714 25.4293 58.4499 24.7976C57.6599 24.3237 57.0279 23.534 56.8699 22.5863C56.7119 21.6386 57.0279 20.691 57.6599 20.0592L60.03 17.69C61.1361 16.5843 61.1361 15.0049 60.03 13.8993C58.924 12.7936 57.3439 12.7936 56.2378 13.8993L53.8677 16.2685C51.9716 18.1638 51.1816 20.691 51.4976 23.376C51.9716 26.0611 53.5517 28.2724 55.9218 29.378C59.082 30.9574 62.8742 30.3257 65.4023 27.7985L71.2486 22.1125C72.0386 23.2181 71.8806 24.4816 70.9326 25.4293L60.346 36.0117C59.872 36.4856 59.24 36.8015 58.4499 36.8015H46.1253C46.2833 36.4856 46.4414 36.1697 46.5994 36.0117C47.7054 34.9061 47.7054 33.3266 46.5994 32.221C45.4933 31.1154 43.9132 31.1154 42.8072 32.221C38.541 36.4856 39.489 43.7511 40.7531 52.2802C41.3851 56.7027 42.0171 61.1252 42.0171 65.7056C42.0171 76.6039 33.8007 78.8152 33.4847 78.9731C32.0626 79.289 31.2726 80.7105 31.5886 82.132C31.9046 83.3956 33.0107 84.1853 34.1168 84.1853C34.2748 84.1853 34.5908 84.1853 34.7488 84.0274C37.9089 83.2376 43.1232 80.2367 45.6513 74.0768C45.6513 74.0768 45.8093 74.0768 45.8093 73.9188C50.2335 67.1271 57.6599 63.0205 65.7183 63.0205C72.0386 63.0205 77.8849 65.5477 82.4671 69.9702C83.5732 70.9179 85.1533 70.9179 86.2593 69.9702C87.2074 68.8646 87.2074 67.2851 86.2593 66.1795C84.9953 64.9159 83.7312 63.9682 82.3091 63.0205C87.2074 53.3858 97.1618 47.2259 108.064 47.3839H108.854C115.649 47.5418 121.179 53.5438 121.179 60.6513L121.653 91.6088Z" fill="black"/>
</svg>
