<svg width="52" height="39" viewBox="0 0 52 39" fill="none" xmlns="http://www.w3.org/2000/svg">
<path d="M46 23.1L38.4 22.6L33.4 14.2L30.9 9.99999V8.79998C30.9 7.49998 29.9 6.49999 28.6 6.49999C28.3 6.49999 28 6.59999 27.8 6.69999L20.5 9.49999L21 7.69999C21.4 6.19999 20.7 4.49998 19.3 3.79998L13.6 0.69999C13.2 0.49999 12.7 0.599993 12.4 0.999993L4.09999 14.4L3.89999 14.3C3.49999 14.1 2.89999 14.2 2.69999 14.6L0.0999925 19.5C-0.100007 19.9 -7.48038e-06 20.5 0.499993 20.7L32.3 38.3C32.4 38.4 32.6 38.4 32.7 38.4H45.8C48.7 38.4 51.1 36 51.1 33.1V28.5C51.1 25.7 48.9 23.3 46 23.1ZM36.5 22.9L35.5 23.2L27.6 13L29.6 11.5L36.5 22.9ZM13.5 2.59998L18.4 5.29998C19.1 5.69998 19.4 6.49999 19.2 7.19999L18.5 9.69999L13.4 6.69999L11.6 5.59998L13.5 2.59998ZM8.29999 11L8.79999 10.3L11.7 12.5C13.2 13.6 13.9 15.4 13.7 17.3L13.6 19.8L5.69999 15.3L8.29999 11ZM45.8 36.6H32.9L2.09999 19.5L3.89999 16.2L33 33C33.1 33.1 33.3 33.1 33.4 33.1H49.2C49.3 35 47.7 36.6 45.8 36.6ZM49.3 31.3H33.7L27.7 27.8L29.7 25.7C30 25.3 30 24.8 29.7 24.5C29.4 24.2 28.8 24.2 28.5 24.5L26.2 26.9L22.9 25L26.3 22.3C26.7 22 26.7 21.4 26.4 21.1C26.1 20.7 25.5 20.7 25.2 21L21.3 24.1L18.4 22.5L22.8 18.9C23.2 18.6 23.2 18 22.9 17.7C22.6 17.3 22 17.3 21.7 17.6L16.9 21.6L15.5 20.8L15.6 17.4C15.9 15 14.9 12.5 12.9 11.1L9.89999 8.89999L11 7.09998L18.8 11.8C18.9 11.9 19 11.9 19.1 11.9C19.1 11.9 19.1 11.9 19.2 11.9C19.2 11.9 19.2 11.9 19.3 11.9C19.4 11.9 19.5 11.9 19.6 11.8L28.5 8.39999C28.7 8.29999 28.8 8.39999 29 8.49999C29.1 8.59999 29.2 8.79999 29.2 8.89999V9.89999L26 12.3C25.6 12.6 25.5 13.1 25.8 13.5L34.6 24.9C34.8 25.2 35.2 25.3 35.6 25.2L38.1 24.4L46 25C47.9 25.1 49.4 26.7 49.4 28.7V31.3H49.3Z" fill="black"/>
<path d="M5.3 26H0.9C0.4 26 0 26.4 0 26.9C0 27.4 0.4 27.8 0.9 27.8H5.3C5.8 27.8 6.2 27.4 6.2 26.9C6.2 26.4 5.8 26 5.3 26Z" fill="black"/>
<path d="M0 32.2C0 32.7 0.4 33.1 0.9 33.1H12.3C12.8 33.1 13.2 32.7 13.2 32.2C13.2 31.7 12.8 31.3 12.3 31.3H0.9C0.4 31.3 0 31.7 0 32.2Z" fill="black"/>
<path d="M22 36.6H0.9C0.4 36.6 0 37 0 37.5C0 38 0.4 38.4 0.9 38.4H22C22.5 38.4 22.9 38 22.9 37.5C22.9 37 22.5 36.6 22 36.6Z" fill="black"/>
</svg>
