<svg width="75" height="42" viewBox="0 0 75 42" fill="none" xmlns="http://www.w3.org/2000/svg">
<path d="M61.2495 40.9556L61.2911 40.9556L72.0645 40.9605C72.4796 40.9225 72.8308 40.658 73.0256 40.1752C73.2282 39.673 73.2355 38.9581 72.8591 38.2288C72.2028 36.9613 71.3343 35.814 70.3729 34.655C68.7904 32.7589 67.019 31.0811 65.1974 29.3557C64.5281 28.7217 63.852 28.0814 63.176 27.4214C62.0451 26.3183 61.2168 25.246 61.0893 23.9706C60.961 22.6866 61.5703 21.4871 62.4859 20.2096C62.4862 20.2092 62.4865 20.2088 62.4867 20.2084L63.2995 20.791L61.2495 40.9556ZM61.2495 40.9556L61.208 40.9591M61.2495 40.9556L61.208 40.9591M61.208 40.9591C58.7857 41.1601 56.8378 40.2076 55.1208 38.4574L55.1205 38.4572M61.208 40.9591L55.1205 38.4572M55.1205 38.4572C54.1238 37.442 53.1886 36.3955 52.2355 35.329C51.7719 34.8102 51.304 34.2866 50.8227 33.7596L50.8217 33.7585M55.1205 38.4572L50.8217 33.7585M50.8217 33.7585C50.2122 33.0932 49.5272 32.4137 48.6832 31.8657L48.6831 31.8656M50.8217 33.7585L48.6831 31.8656M48.6831 31.8656C47.8058 31.2961 46.8344 31.0015 45.8684 31.2326C44.8964 31.4652 44.1683 32.1726 43.661 33.0985C42.6853 34.8771 42.4863 36.8085 42.4009 38.5752L42.4008 38.578M48.6831 31.8656L42.4008 38.578M42.4008 38.578C42.3445 39.8154 42.1289 40.263 41.9052 40.4754C41.6668 40.7019 41.1756 40.8988 39.9113 40.9564L39.9097 40.9565M42.4008 38.578L39.9097 40.9565M39.9097 40.9565C34.5782 41.2079 29.593 40.3994 24.9822 37.7611L24.9822 37.7611M39.9097 40.9565L24.9822 37.7611M24.9822 37.7611C20.8959 35.4231 17.699 32.1075 14.8801 28.2885M24.9822 37.7611L14.8801 28.2885M2.286 2.46581L2.28379 2.46586C1.30584 2.48269 1.08062 2.73298 1.04719 2.78633C1.01085 2.84433 0.88764 3.16232 1.28685 4.05103L2.286 2.46581ZM2.286 2.46581C5.79943 2.39756 9.314 2.40239 12.8353 2.46099L12.8373 2.46102M2.286 2.46581L12.8373 2.46102M12.8373 2.46102C13.3534 2.46857 13.7348 2.61509 14.0363 2.84944C14.3489 3.09241 14.6327 3.47528 14.8621 4.03631C16.7942 8.7869 19.1641 13.3208 22.1465 17.5314L22.1465 17.5315M12.8373 2.46102L22.1465 17.5315M22.1465 17.5315C22.9146 18.6155 23.8047 19.866 25.1074 20.7573L22.1465 17.5315ZM30.0896 16.4067L30.0894 16.4099C30.0007 17.4061 29.8239 18.4765 29.392 19.4985C29.044 20.3226 28.4867 21.0652 27.6035 21.3257C26.7195 21.5865 25.8482 21.2645 25.1077 20.7575L30.0896 16.4067ZM30.0896 16.4067C30.373 13.097 30.414 9.75549 29.9084 6.40039C29.7355 5.23559 29.3088 4.20082 28.5692 3.39245C27.9329 2.69695 27.1111 2.21964 26.1419 1.95474M30.0896 16.4067L26.1419 1.95474M26.1419 1.95474C26.4154 1.66881 26.6629 1.46524 26.9275 1.31907C27.2718 1.12878 27.7113 1 28.3869 1H40.5049C41.2766 1.16441 41.5715 1.38754 41.7368 1.60736C41.9426 1.88096 42.0918 2.33165 42.2205 3.24864L42.231 16.7408C42.2195 17.2537 42.338 18.1151 42.6418 18.9311C42.9365 19.7227 43.5135 20.7573 44.61 21.1603L44.6271 21.1665L44.6443 21.1722C45.5398 21.4649 46.3019 21.2306 46.8843 20.85C47.3379 20.5535 47.7318 20.1308 48.0091 19.8332C48.0492 19.7902 48.0867 19.7499 48.1217 19.7129L48.1232 19.7113C51.1518 16.497 53.2922 12.7211 55.1714 8.8933C56.0182 7.18397 56.7423 5.41708 57.4331 3.68088L57.4333 3.68039C57.6456 3.14609 57.8761 2.85512 58.1114 2.68851C58.3383 2.52774 58.6746 2.40841 59.2469 2.41948L59.2562 2.41966L59.2654 2.41967L71.0258 2.43016H71.0267C71.3771 2.43016 71.6527 2.43687 71.8973 2.47874L71.898 2.47886C72.8298 2.63766 73.0763 2.87223 73.1441 2.98203C73.2098 3.08834 73.3118 3.41025 73.0257 4.3157C72.1473 7.08085 70.4604 9.4165 68.6664 11.9004C68.6086 11.9803 68.5507 12.0605 68.4927 12.1408L26.1419 1.95474ZM14.8801 28.2885C9.35838 20.8069 5.11702 12.5684 1.28699 4.05135L14.8801 28.2885ZM25.6428 2.5499C25.6428 2.54989 25.6431 2.54934 25.6437 2.54822L25.6428 2.5499Z" stroke="black" stroke-width="2"/>
</svg>
