<svg width="117" height="117" viewBox="0 0 117 117" fill="none" xmlns="http://www.w3.org/2000/svg">
<g clip-path="url(#clip0)">
<path d="M94.1484 31.0781C94.1484 32.3394 95.1723 33.3633 96.4336 33.3633C97.6949 33.3633 98.7188 32.3394 98.7188 31.0781C98.7188 29.8168 97.6949 28.793 96.4336 28.793C95.1723 28.793 94.1484 29.8168 94.1484 31.0781Z" fill="black"/>
<path d="M103.289 58.5C103.289 61.4269 102.995 64.3485 102.417 67.1836C102.164 68.4199 102.962 69.6267 104.199 69.8793C104.353 69.9115 104.507 69.9266 104.658 69.9266C105.722 69.9266 106.674 69.1795 106.895 68.0976C107.535 64.9618 107.859 61.7331 107.859 58.5C107.859 51.3044 106.299 44.3802 103.22 37.9193C102.678 36.7803 101.315 36.2965 100.175 36.8392C99.0348 37.3819 98.5519 38.7459 99.0946 39.8858C101.878 45.7272 103.289 51.9899 103.289 58.5V58.5Z" fill="black"/>
<path d="M69.9258 79.0664H67.6406V49.3594C67.6406 48.0972 66.6177 47.0742 65.3555 47.0742H47.0742C45.812 47.0742 44.7891 48.0972 44.7891 49.3594V58.5C44.7891 59.7622 45.812 60.7852 47.0742 60.7852H49.3594V79.0664H47.0742C45.812 79.0664 44.7891 80.0894 44.7891 81.3516V90.4922C44.7891 91.7544 45.812 92.7773 47.0742 92.7773H69.9258C71.188 92.7773 72.2109 91.7544 72.2109 90.4922V81.3516C72.2109 80.0894 71.188 79.0664 69.9258 79.0664ZM67.6406 88.207H49.3594V83.6367H51.6445C52.9067 83.6367 53.9297 82.6138 53.9297 81.3516V58.5C53.9297 57.2378 52.9067 56.2148 51.6445 56.2148H49.3594V51.6445H63.0703V81.3516C63.0703 82.6138 64.0942 83.6367 65.3555 83.6367H67.6406V88.207Z" fill="black"/>
<path d="M58.5 42.5039C63.5398 42.5039 67.6406 38.4031 67.6406 33.3633C67.6406 28.3234 63.5398 24.2227 58.5 24.2227C53.4602 24.2227 49.3594 28.3234 49.3594 33.3633C49.3594 38.4031 53.4602 42.5039 58.5 42.5039ZM58.5 28.793C61.0199 28.793 63.0703 30.8434 63.0703 33.3633C63.0703 35.8832 61.0199 37.9336 58.5 37.9336C55.9801 37.9336 53.9297 35.8832 53.9297 33.3633C53.9297 30.8434 55.9801 28.793 58.5 28.793Z" fill="black"/>
<path d="M58.4998 0C26.9701 0 -0.00014449 26.9193 -0.00014449 58.5C-0.00014449 69.2875 3.09106 80.7597 8.30318 89.4371L0.116791 113.993C-0.156356 114.813 0.0569844 115.719 0.669335 116.331C1.28436 116.946 2.19128 117.155 3.00805 116.882L27.5637 108.697C36.2401 113.91 47.7123 117 58.4998 117C90.0377 117 117 90.0771 117 58.5C117 26.9622 90.0779 0 58.4998 0V0ZM58.4998 112.43C48.1515 112.43 37.1524 109.376 29.0767 104.261C28.5045 103.899 27.7913 103.803 27.1307 104.024L5.89841 111.101L12.9761 89.8691C13.194 89.2175 13.1065 88.5034 12.7387 87.9232C7.62389 79.8484 4.57017 68.8484 4.57017 58.5C4.57017 29.267 29.2668 4.57031 58.4998 4.57031C87.7329 4.57031 112.43 29.267 112.43 58.5C112.43 87.733 87.7329 112.43 58.4998 112.43Z" fill="black"/>
</g>
<defs>
<clipPath id="clip0">
<rect width="117" height="117" fill="white"/>
</clipPath>
</defs>
</svg>
